<svg width="93" height="212" viewBox="0 0 93 212" fill="none" xmlns="http://www.w3.org/2000/svg">
<path d="M37.7385 208.739C36.8261 210.123 23.365 211.33 15.7272 209.471C14.121 209.078 12.9795 207.653 12.9523 205.999C12.9386 205.148 13.0513 204.181 13.4375 203.227C13.8305 202.26 14.4935 201.631 15.3786 201.026C16.9677 199.933 19.2642 198.897 21.9707 196.051L37.7385 196.785C37.7385 196.785 38.1417 200.951 38.1827 204.399C38.2066 206.409 38.111 208.172 37.7385 208.739Z" fill="#371A45"/>
<g opacity="0.6">
<path d="M14.2227 206.953C14.2091 206.102 14.3219 205.135 14.7081 204.181C15.1011 203.214 15.764 202.585 16.6492 201.981C18.2382 200.887 20.5347 199.851 23.2412 197.005L38.1364 197.699C38.0882 197.129 38.0549 196.786 38.0549 196.786L22.2871 196.051C19.5806 198.897 17.2841 199.933 15.6951 201.027C14.81 201.631 14.147 202.26 13.754 203.227C13.3678 204.181 13.255 205.148 13.2687 205.999C13.2886 207.203 13.9011 208.284 14.8519 208.936C14.4632 208.365 14.2348 207.681 14.2227 206.953Z" fill="white"/>
</g>
<path d="M71.8407 205.999C71.8407 206.06 71.8373 206.122 71.8304 206.183C71.7279 207.759 70.6104 209.091 69.0657 209.471C66.4412 210.11 63.1298 210.387 59.8765 210.417C59.3775 210.424 58.8786 210.424 58.3831 210.414C52.7273 210.346 47.6081 209.577 47.0579 208.739C46.7708 208.305 46.6444 207.154 46.6171 205.732C46.6068 205.206 46.6068 204.642 46.6171 204.061C46.6307 203.405 46.6546 202.732 46.6854 202.069C46.8119 199.318 47.0579 196.785 47.0579 196.785L62.8223 196.051C65.2622 198.617 67.3674 199.711 68.9223 200.702C70.0534 201.419 70.8906 202.089 71.3554 203.227C71.5946 203.819 71.7279 204.417 71.7894 204.987C71.8338 205.336 71.8475 205.678 71.8407 205.999Z" fill="#371A45"/>
<g opacity="0.6">
<path d="M70.5738 206.953C70.5875 206.102 70.4747 205.135 70.0885 204.181C69.6955 203.214 69.0325 202.585 68.1474 201.981C66.5584 200.887 64.2618 199.851 61.5554 197.005L46.6602 197.699C46.7084 197.129 46.7416 196.786 46.7416 196.786L62.5095 196.051C65.216 198.897 67.5125 199.933 69.1015 201.027C69.9866 201.631 70.6496 202.26 71.0426 203.227C71.4288 204.181 71.5415 205.148 71.5279 205.999C71.5079 207.203 70.8955 208.284 69.9447 208.936C70.3333 208.365 70.5617 207.681 70.5738 206.953Z" fill="white"/>
</g>
<g opacity="0.2">
<path d="M71.7882 204.989C71.5592 206.974 70.4964 208.608 69.0645 209.096C66.44 209.988 63.1286 210.374 59.8753 210.419C59.3763 210.426 58.8774 210.426 58.3819 210.415C52.7295 210.316 47.6035 209.243 47.0533 208.074C46.7731 207.487 46.6501 205.962 46.6158 204.062C46.6056 203.42 46.6022 202.733 46.609 202.022C46.633 202.039 46.6569 202.056 46.6842 202.07C50.4331 204.555 56.0923 205.139 62.8211 204.883C66.5425 204.742 68.2103 202.788 68.9211 200.703C70.0522 201.421 70.8894 202.091 71.3542 203.229C71.5934 203.82 71.7267 204.418 71.7882 204.989Z" fill="#371A45"/>
</g>
<path d="M71.8286 206.185C71.7261 207.761 70.6087 209.094 69.064 209.473C61.4262 211.332 47.9652 210.126 47.0561 208.742C46.769 208.308 46.6426 207.156 46.6152 205.734C50.3443 206.894 57.9239 208.595 71.8286 206.185Z" fill="white"/>
<g opacity="0.2">
<path d="M12.9766 205.16C13.2055 207.146 14.2684 208.779 15.7002 209.268C18.3247 210.16 21.6362 210.546 24.8895 210.591C25.3884 210.597 25.8874 210.597 26.3829 210.587C32.0352 210.488 37.1612 209.415 37.7115 208.246C37.9917 207.659 38.1147 206.134 38.1489 204.234C38.1591 203.592 38.1626 202.905 38.1557 202.194C38.1318 202.211 38.1079 202.228 38.0805 202.242C34.3316 204.726 28.6725 205.311 21.9437 205.054C18.2222 204.914 16.5545 202.96 15.8437 200.875C14.7125 201.593 13.8752 202.262 13.4105 203.4C13.1714 203.992 13.0381 204.59 12.9766 205.16Z" fill="#371A45"/>
</g>
<path d="M25.5418 211.447C22.5663 211.447 18.7196 211.255 15.4823 210.466C13.4232 209.965 11.9603 208.135 11.9251 206.016C11.9063 204.877 12.0953 203.81 12.487 202.844C13.1763 201.144 14.5344 200.311 16.107 199.346C17.5133 198.484 19.2634 197.411 21.2253 195.346C21.4303 195.131 21.7194 195.015 22.016 195.028L37.7831 195.761C38.2922 195.784 38.7067 196.178 38.7561 196.686C39.0706 199.926 39.6845 207.642 38.5921 209.303C37.7261 210.62 33.0662 211.141 29.3095 211.346C28.4421 211.393 27.1135 211.447 25.5418 211.447ZM22.383 197.098C20.3727 199.135 18.6099 200.217 17.179 201.094C15.7604 201.964 14.8231 202.539 14.3873 203.614C14.0995 204.323 13.9609 205.12 13.9753 205.982C13.995 207.168 14.8143 208.193 15.9677 208.474C23.1456 210.224 35.3104 209.122 36.9087 208.114C37.3292 207.113 37.1865 202.196 36.7969 197.767L22.383 197.098Z" fill="#371A45"/>
<path d="M12.9609 205.963C13.0635 207.538 14.1809 208.871 15.7256 209.25C23.3634 211.109 36.8244 209.903 37.7335 208.519C38.0206 208.085 38.147 206.933 38.1744 205.512C34.4453 206.671 26.8657 208.372 12.9609 205.963Z" fill="white"/>
<path d="M59.2488 211.447C57.6767 211.447 56.3485 211.393 55.481 211.346C51.7243 211.141 47.0644 210.62 46.1982 209.303C45.106 207.642 45.7198 199.926 46.0344 196.686C46.0838 196.178 46.4982 195.784 47.0074 195.76L62.7745 195.028C63.0724 195.017 63.3602 195.13 63.5652 195.346C65.5269 197.41 67.2774 198.484 68.6835 199.346C70.2561 200.311 71.6142 201.143 72.3033 202.843C72.6955 203.81 72.8843 204.878 72.8654 206.015C72.8303 208.134 71.3676 209.964 69.308 210.466C66.0709 211.255 62.224 211.447 59.2488 211.447ZM47.8842 208.115C49.4922 209.123 61.649 210.222 68.8226 208.474C69.9763 208.193 70.7956 207.168 70.8151 205.981C70.8297 205.12 70.6909 204.324 70.403 203.614C69.9673 202.539 69.0301 201.964 67.6115 201.094C66.1806 200.217 64.4178 199.135 62.4075 197.098L47.9936 197.767C47.6048 202.185 47.4622 207.09 47.8842 208.115Z" fill="#371A45"/>
<path d="M82.0575 144.163C81.4663 145.677 80.4684 146.838 79.0809 147.577C73.7054 150.43 65.5003 142.963 63.1081 134.396C63.1081 134.396 61.0714 152.409 61.7412 161.195H22.9232C23.5964 152.409 21.5563 134.396 21.5563 134.396C19.1675 142.963 10.959 150.43 5.58345 147.577C2.10118 145.724 1.06226 141.2 2.77782 135.13C3.70735 131.836 5.44677 128.087 8.0474 124.068C12.7907 116.735 21.1154 109.948 29.3274 106.025C33.9101 103.834 38.4586 102.539 42.3339 102.539C46.1169 102.539 50.5424 103.776 55.0226 105.874C63.3371 109.774 71.8122 116.643 76.617 124.069C82.1019 132.544 83.7627 139.809 82.0575 144.163Z" fill="white"/>
<path d="M61.9137 161.353H22.7527L22.7657 161.182C23.3505 153.548 21.862 138.745 21.4839 135.191C19.7232 140.663 15.5197 145.823 11.2632 147.65C9.13684 148.563 7.14735 148.585 5.50976 147.716C1.94417 145.819 0.892979 141.216 2.62584 135.086C3.59894 131.637 5.37855 127.9 7.91482 123.981C12.4777 116.926 20.6565 109.99 29.2599 105.88C34.0515 103.59 38.5728 102.379 42.3348 102.379C45.9999 102.379 50.411 103.537 55.0909 105.729C63.8142 109.82 72.114 116.814 76.7514 123.981C81.9714 132.047 84.0108 139.613 82.2065 144.219C81.5934 145.789 80.5671 146.965 79.1563 147.716C77.5191 148.585 75.5303 148.563 73.4061 147.651C69.1504 145.825 64.9456 140.664 63.1823 135.191C62.8048 138.743 61.3186 153.547 61.9005 161.182L61.9137 161.353ZM23.0955 161.035H61.571C60.9465 152.272 62.9307 134.556 62.9511 134.377L63.0426 133.566L63.2621 134.352C64.8431 140.014 69.1619 145.484 73.5314 147.359C75.5649 148.231 77.458 148.257 79.0073 147.435C80.3489 146.721 81.3259 145.6 81.9103 144.104C83.6773 139.592 81.6492 132.134 76.4843 124.154C71.8776 117.034 63.6283 110.084 54.9559 106.017C50.318 103.845 45.9536 102.697 42.3348 102.697C38.62 102.697 34.1461 103.897 29.397 106.167C20.8438 110.253 12.7145 117.145 8.18188 124.154C5.66284 128.046 3.89646 131.754 2.93189 135.172C1.24329 141.146 2.23738 145.615 5.65897 147.435C7.20879 148.257 9.10313 148.231 11.1377 147.358C15.5082 145.482 19.8258 140.012 21.404 134.352L21.6233 133.565L21.7152 134.377C21.7355 134.556 23.7232 152.272 23.0955 161.035Z" fill="#371A45"/>
<path d="M61.7414 162.218H22.9217C22.6361 162.218 22.3636 162.099 22.1695 161.89C21.9756 161.68 21.8776 161.399 21.8995 161.115C22.3586 155.113 21.5212 144.595 20.9683 138.742C18.7747 143.149 15.2625 146.875 11.6029 148.445C9.22747 149.464 6.97969 149.476 5.10245 148.48C3.20823 147.473 1.89571 145.742 1.30613 143.471C0.0259098 138.541 2.16881 131.266 7.18544 123.51C11.8328 116.327 20.1472 109.272 28.884 105.098C33.7901 102.752 38.4403 101.512 42.3315 101.512C46.1261 101.512 50.6642 102.699 55.4551 104.944C64.3191 109.1 72.7577 116.214 77.4777 123.51C82.4943 131.266 84.6372 138.541 83.3568 143.471C82.7673 145.742 81.4547 147.473 79.5609 148.48C79.5609 148.48 79.5606 148.48 79.5606 148.48C77.6833 149.476 75.4368 149.464 73.0636 148.447C69.4037 146.877 65.8902 143.149 63.6949 138.74C63.1419 144.593 62.3044 155.113 62.7636 161.115C62.7854 161.399 62.6874 161.68 62.4935 161.89C62.2995 162.099 62.0269 162.218 61.7414 162.218ZM24.0127 160.168H60.6505C60.202 151.107 62.0071 134.988 62.0874 134.278C62.1426 133.791 62.5354 133.411 63.0243 133.372C63.5158 133.332 63.9617 133.645 64.0936 134.118C65.6109 139.549 69.7234 144.783 73.8721 146.562C75.1155 147.096 76.9446 147.547 78.5989 146.669C79.9914 145.929 80.9246 144.68 81.3722 142.956C82.5088 138.58 80.4617 131.898 75.7562 124.623C71.233 117.632 63.1207 110.803 54.5849 106.801C50.0647 104.682 45.8275 103.562 42.3316 103.562C38.7446 103.562 34.4003 104.733 29.7683 106.948C21.3538 110.968 13.3604 117.741 8.90711 124.624C4.20168 131.898 2.1545 138.58 3.29079 142.956C3.73847 144.68 4.67163 145.929 6.06448 146.669C7.71848 147.548 9.5498 147.095 10.7943 146.561C14.9441 144.781 19.0551 139.548 20.5695 134.118C20.7014 133.646 21.1495 133.332 21.6387 133.372C22.1279 133.411 22.5207 133.791 22.5758 134.279C22.656 134.988 24.4611 151.107 24.0127 160.168Z" fill="#371A45"/>
<g opacity="0.2">
<path d="M82.0574 144.163C81.4663 145.676 80.4684 146.838 79.0809 147.577C73.7054 150.43 65.5003 142.963 63.1081 134.396C63.1081 134.396 61.0714 152.409 61.7411 161.195H22.9232C23.5964 152.409 21.5563 134.396 21.5563 134.396C19.1675 142.963 10.959 150.43 5.58345 147.577C2.10118 145.724 1.06226 141.2 2.77782 135.13C8.48141 136.713 15.9586 136.655 21.4059 128.825C21.4059 128.825 26.2175 140.916 30.6089 144.098C30.6089 144.098 27.2427 143.602 25.0454 140.974C25.0454 140.974 26.2749 154.767 39.5514 154.767C51.407 154.767 57.1824 153.653 58.1768 139.337C58.1768 139.337 55.6548 142.621 48.8644 142.184C50.4159 142.201 56.639 141.176 59.7248 124.383C59.725 124.383 69.7788 141.353 82.0574 144.163Z" fill="#371A45"/>
</g>
<path d="M54.0078 105.874C53.3995 111.069 47.983 115.611 41.3977 115.611C34.8739 115.611 29.5018 111.147 28.8047 106.025C33.2985 103.834 37.7616 102.539 41.5617 102.539C45.2729 102.539 49.6164 103.776 54.0078 105.874Z" fill="#828282"/>
<path d="M38.543 106.477L45.7257 106.133L41.5485 116.015L38.543 106.477Z" fill="#FFD1AB"/>
<path d="M41.5255 116.474L38.3281 106.327L45.9694 105.961L41.5255 116.474ZM38.7554 106.625L41.569 115.555L45.4796 106.303L38.7554 106.625Z" fill="#371A45"/>
<path d="M41.3977 116.634C34.5658 116.634 28.5879 112.034 27.7887 106.161C27.7289 105.722 27.9575 105.295 28.3553 105.101C33.1725 102.753 37.7391 101.512 41.5617 101.512C45.2894 101.512 49.7459 102.7 54.4498 104.947C54.8455 105.136 55.077 105.556 55.0261 105.992C54.3387 111.86 48.225 116.634 41.3977 116.634ZM29.9548 106.61C31.0034 111.069 35.9586 114.584 41.3977 114.584C46.9296 114.584 51.9003 111.006 52.8705 106.472C48.7024 104.567 44.8057 103.562 41.5617 103.562C38.2301 103.562 34.2305 104.614 29.9548 106.61Z" fill="#371A45"/>
<path d="M37.8813 162.22C37.4269 162.22 37.0118 161.916 36.8905 161.456C33.8558 149.94 33.0807 118.295 33.0491 116.953C33.0373 116.448 33.3952 116.01 33.8924 115.92L41.2153 114.602C41.7743 114.503 42.3056 114.872 42.406 115.429C42.5063 115.987 42.1358 116.52 41.5787 116.62L35.1225 117.782C35.2727 123.065 36.1757 150.697 38.8733 160.934C39.0176 161.481 38.6907 162.042 38.1431 162.186C38.0557 162.209 37.9676 162.22 37.8813 162.22Z" fill="#371A45"/>
<path d="M38.8991 131.298C39.6676 131.298 40.2905 130.675 40.2905 129.907C40.2905 129.139 39.6676 128.516 38.8991 128.516C38.1307 128.516 37.5078 129.139 37.5078 129.907C37.5078 130.675 38.1307 131.298 38.8991 131.298Z" fill="#371A45"/>
<path d="M40.5491 140.32C41.0924 139.776 41.0924 138.895 40.5491 138.352C40.0057 137.809 39.1248 137.809 38.5815 138.352C38.0381 138.895 38.0381 139.776 38.5815 140.32C39.1248 140.863 40.0057 140.863 40.5491 140.32Z" fill="#371A45"/>
<path d="M40.4715 150.292C41.1815 149.998 41.5186 149.184 41.2246 148.474C40.9305 147.764 40.1166 147.427 39.4066 147.721C38.6966 148.016 38.3595 148.829 38.6536 149.539C38.9476 150.249 39.7616 150.586 40.4715 150.292Z" fill="#371A45"/>
<path d="M47.1159 131.298C47.8843 131.298 48.5073 130.675 48.5073 129.907C48.5073 129.139 47.8843 128.516 47.1159 128.516C46.3475 128.516 45.7246 129.139 45.7246 129.907C45.7246 130.675 46.3475 131.298 47.1159 131.298Z" fill="#371A45"/>
<path d="M48.4932 139.561C48.6163 138.802 48.1012 138.088 47.3427 137.964C46.5841 137.841 45.8694 138.356 45.7463 139.115C45.6232 139.873 46.1383 140.588 46.8969 140.711C47.6554 140.834 48.3701 140.319 48.4932 139.561Z" fill="#371A45"/>
<path d="M47.6532 150.292C48.3631 149.998 48.7003 149.184 48.4062 148.474C48.1121 147.764 47.2982 147.427 46.5882 147.721C45.8783 148.016 45.5411 148.829 45.8352 149.539C46.1293 150.249 46.9432 150.586 47.6532 150.292Z" fill="#371A45"/>
<path d="M20.4826 134.375C20.6273 133.819 20.756 133.221 20.8723 132.637C20.9885 132.048 21.0912 131.456 21.1721 130.862C21.2537 130.267 21.3207 129.668 21.3456 129.068C21.3701 128.468 21.3715 127.863 21.2741 127.258C21.5356 127.813 21.7088 128.414 21.8559 129.019C22.0032 129.625 22.1078 130.239 22.1974 130.856C22.2874 131.474 22.355 132.094 22.4081 132.716C22.4602 133.342 22.503 133.954 22.5202 134.604L22.5203 134.608C22.5354 135.18 22.0841 135.656 21.5123 135.671C20.9404 135.686 20.4647 135.235 20.4496 134.663C20.4469 134.565 20.4596 134.465 20.4826 134.375Z" fill="#371A45"/>
<path d="M25.0531 121.535C23.8945 122.789 22.3226 124.036 20.2482 125.133C20.2482 125.133 19.2128 132.97 13.6117 135.054L14.3806 141.786C14.3806 141.786 10.4916 144.633 4.30277 142.774C3.86532 142.641 3.41764 142.487 2.95635 142.306L1.96875 136.923C1.96875 136.923 3.31518 119.416 4.30284 117.769C5.29387 116.122 6.36006 113.966 7.12899 109.571C7.48783 107.514 7.68258 105.791 7.99702 104.51C8.35586 103.057 8.87528 102.169 9.98594 101.991C12.074 101.663 12.2927 109.024 11.5237 114.844C11.5237 114.844 15.8092 111.768 17.5657 115.613C17.5657 115.613 21.3009 115.063 21.3009 118.36C21.3009 118.36 25.6921 114.55 26.902 114.406C27.2163 114.369 27.4693 114.526 27.6265 114.837C28.1731 115.896 27.664 118.719 25.0531 121.535Z" fill="#FFB78A"/>
<g opacity="0.2">
<path d="M20.2482 125.133C20.2482 125.133 19.2127 132.969 13.6117 135.053L14.3806 141.785C14.3806 141.785 10.4916 144.632 4.30273 142.773C4.53857 142.575 4.79145 142.38 5.05456 142.185C10.5463 138.112 9.88675 132.712 9.88675 132.712C15.2315 131.759 17.5656 123.998 17.5656 123.998C21.974 122.802 25.7878 117.7 27.6263 114.836C28.4157 116.367 27.0009 121.572 20.2482 125.133Z" fill="#371A45"/>
</g>
<path d="M8.44516 144.432C6.75574 144.432 4.78361 144.124 2.57933 143.255C2.25001 143.126 2.01086 142.835 1.94688 142.487L0.958275 137.105C0.942311 137.018 0.937602 136.929 0.944471 136.841C1.26496 132.677 2.39088 118.959 3.42356 117.237C4.39354 115.621 5.3915 113.552 6.11928 109.391C6.25373 108.624 6.36262 107.914 6.46801 107.228C6.97096 103.952 7.36815 101.364 9.82523 100.976C10.4172 100.883 10.9896 101.074 11.4406 101.513C13.1564 103.186 13.1107 109.013 12.7499 113.051C13.645 112.717 14.7619 112.492 15.8581 112.784C16.5423 112.966 17.4505 113.422 18.1559 114.548C18.1562 114.548 18.1565 114.548 18.1569 114.548C18.9469 114.548 20.1958 114.698 21.1444 115.517C21.4037 115.741 21.6869 116.059 21.9108 116.496C23.615 115.095 25.7418 113.509 26.7778 113.383C27.6512 113.276 28.4059 113.818 28.7001 114.759C29.4483 117.153 27.5499 122.249 21.1774 125.792C20.8395 127.597 19.4052 133.434 14.7155 135.694L15.3978 141.668C15.4396 142.033 15.282 142.394 14.9851 142.611C14.844 142.714 12.4346 144.432 8.44516 144.432ZM3.85878 141.546C8.69626 143.267 12.0721 141.905 13.2862 141.251L12.5915 135.168C12.5381 134.7 12.8106 134.256 13.2522 134.091C18.2002 132.248 19.2224 125.066 19.2321 124.994C19.2764 124.665 19.477 124.377 19.7703 124.222C25.1066 121.41 26.3847 117.878 26.6493 116.862C26.8207 116.204 26.8143 115.762 26.7756 115.516C25.898 115.947 23.7084 117.625 21.9705 119.13C21.667 119.393 21.2382 119.455 20.8732 119.288C20.5081 119.121 20.2738 118.757 20.2738 118.356C20.2738 117.763 20.1203 117.342 19.8041 117.069C19.196 116.544 18.0627 116.573 17.7136 116.624C17.2615 116.691 16.8216 116.451 16.632 116.036C16.3091 115.329 15.8852 114.914 15.336 114.767C14.1826 114.457 12.6225 115.317 12.1187 115.675C11.7864 115.911 11.3445 115.928 10.9949 115.718C10.6456 115.507 10.4531 115.111 10.5065 114.706C11.3079 108.639 10.7729 103.773 10.0533 103.021C9.19247 103.252 8.92198 104.755 8.49464 107.539C8.39263 108.203 8.27712 108.956 8.13905 109.745C7.35351 114.235 6.25341 116.506 5.18187 118.292C4.6328 119.354 3.64229 128.546 2.99903 136.865L3.85878 141.546Z" fill="#371A45"/>
<path d="M12.3165 115.494L9.12695 117.769L10.7305 114.194C10.9706 113.659 11.5991 113.42 12.1344 113.66C12.6697 113.9 12.909 114.528 12.6688 115.064C12.5893 115.241 12.4636 115.388 12.3165 115.494Z" fill="#371A45"/>
<path d="M18.2594 116.365L12.8887 119.923L16.8694 114.858C17.2239 114.407 17.8767 114.329 18.3276 114.683C18.7785 115.037 18.8568 115.69 18.5024 116.141C18.4329 116.229 18.3481 116.306 18.2594 116.365Z" fill="#371A45"/>
<path d="M22.0157 119.091L17.1172 122.45L20.5817 117.625C20.9169 117.158 21.5673 117.052 22.0342 117.387C22.5011 117.722 22.6078 118.373 22.2726 118.839C22.2009 118.939 22.1112 119.025 22.0157 119.091Z" fill="#371A45"/>
<path d="M1.51985 136.965C1.51985 136.965 7.18909 142.244 13.9147 140.103L13.866 137.706C13.866 137.706 16.3143 139.743 16.376 141.917C16.4492 144.501 12.7584 148.937 8.8326 148.402C3.35588 147.656 -0.346191 142.288 1.51985 136.965Z" fill="white"/>
<path d="M9.4895 148.606C9.26156 148.606 9.03501 148.591 8.81018 148.56C6.01308 148.179 3.5822 146.61 2.14095 144.254C0.769271 142.013 0.495025 139.405 1.36877 136.913L1.44903 136.684L1.62712 136.849C1.68283 136.901 7.24293 141.98 13.7524 139.988L13.699 137.361L13.9667 137.584C14.0688 137.669 16.4708 139.693 16.5339 141.913C16.5744 143.346 15.5351 145.266 13.9477 146.693C12.5573 147.942 10.9977 148.606 9.4895 148.606ZM1.59379 137.242C0.844763 139.574 1.1323 141.997 2.41227 144.088C3.80341 146.362 6.15116 147.877 8.85311 148.245C11.0369 148.542 12.8493 147.252 13.7353 146.456C15.2334 145.11 16.2536 143.246 16.216 141.922C16.1692 140.27 14.6584 138.667 14.0315 138.072L14.0752 140.219L13.9622 140.255C7.89904 142.185 2.62883 138.114 1.59379 137.242Z" fill="#371A45"/>
<g opacity="0.2">
<path d="M5.45117 147.107C5.97887 147.474 6.55503 147.791 7.17106 148.052C10.8778 149.619 15.674 146.247 16.2856 143.693C16.7053 141.942 15.5493 139.862 15.1074 139.152C14.9662 139.512 14.801 139.886 14.6022 140.268C14.4224 140.608 14.2535 140.972 13.9908 141.274C12.6687 142.791 10.9135 143.802 7.57919 143.27C7.57919 143.27 7.8624 146.151 5.45117 147.107Z" fill="#371A45"/>
</g>
<path d="M9.49159 149.477C9.22434 149.477 8.95823 149.459 8.69378 149.423C5.63783 149.007 2.98028 147.29 1.40253 144.711C-0.107538 142.244 -0.409703 139.374 0.551812 136.631C0.66623 136.305 0.937804 136.058 1.27368 135.975C1.60936 135.892 1.96419 135.984 2.21745 136.22C2.30007 136.295 7.14714 140.676 12.8732 139.333L12.8406 137.732C12.8324 137.331 13.0593 136.962 13.421 136.787C13.7827 136.613 14.2131 136.666 14.5215 136.923C14.8084 137.162 17.3276 139.331 17.4003 141.894C17.4484 143.592 16.3207 145.731 14.5272 147.342C12.9751 148.736 11.214 149.477 9.49159 149.477ZM2.13 138.756C1.88501 140.445 2.23233 142.139 3.15155 143.641C4.40646 145.692 6.52741 147.059 8.97051 147.392C10.8082 147.642 12.382 146.512 13.1569 145.816C14.6315 144.492 15.3767 142.87 15.3506 141.952C15.3368 141.465 15.1423 140.956 14.87 140.48C14.7601 140.762 14.5274 140.989 14.2253 141.085C8.9188 142.776 4.29999 140.284 2.13 138.756Z" fill="#371A45"/>
<path d="M62.6955 196.056C62.6955 196.056 55.4746 199.719 46.9312 196.791C46.9312 196.791 44.3784 175.552 42.3348 169.547C40.2878 175.552 37.7385 196.791 37.7385 196.791C29.1916 199.719 21.9707 196.056 21.9707 196.056L22.5892 171.16L22.9241 157.781H61.7421L62.0838 171.475L62.6955 196.056Z" fill="#525252"/>
<path d="M53.7559 198.075C51.6567 198.075 49.3176 197.776 46.8789 196.94L46.7845 196.907L46.7726 196.808C46.7477 196.602 44.3231 176.547 42.3341 170.064C40.3422 176.547 37.9205 196.602 37.8957 196.808L37.8837 196.907L37.7894 196.94C29.2768 199.857 21.9707 196.233 21.8982 196.197L21.8086 196.151L22.7685 157.621H61.8966L62.8566 196.151L62.7669 196.197C62.715 196.223 58.9807 198.075 53.7559 198.075ZM22.1315 195.956C22.9838 196.355 29.7577 199.314 37.5919 196.671C37.7853 195.082 40.2267 175.236 42.1837 169.495L42.3343 169.053L42.4846 169.495C44.4386 175.236 46.8829 195.085 47.0763 196.671C54.9077 199.314 61.6812 196.354 62.5335 195.956L61.5863 157.939H23.0786L22.1315 195.956Z" fill="#371A45"/>
<g opacity="0.3">
<path d="M62.6955 196.051C62.6955 196.051 55.4746 199.714 46.9312 196.786C46.9312 196.786 44.3784 175.547 42.3348 169.542C40.2878 175.547 37.7385 196.786 37.7385 196.786C29.1916 199.714 21.9707 196.051 21.9707 196.051L22.5892 171.155C23.9186 176.61 25.9895 183.212 27.8246 185.214C27.8246 185.214 26.6866 185.365 24.5166 183.164C24.5166 183.164 23.2864 192.975 29.5846 194.882C35.8828 196.786 37.7385 178.479 37.7385 178.479C37.7385 178.479 35.2984 181.407 32.2228 181.992C32.2228 181.992 37.5163 175.933 38.5416 168.746L46.6066 169.033C46.6066 169.033 47.3071 177.891 50.6766 181.26C50.6766 181.26 47.9632 182.129 46.61 179.142C46.6783 179.627 49.0022 195.302 54.4836 195.019C60.0506 194.735 59.2236 183.748 59.2236 183.748C59.2236 183.748 56.828 186.093 54.3367 185.946C54.3367 185.946 59.1792 183.02 62.0839 171.47L62.6955 196.051Z" fill="#371A45"/>
</g>
<path d="M30.8527 198.956C25.5117 198.956 21.7268 197.08 21.5067 196.968C21.1541 196.789 20.9357 196.423 20.9456 196.028L21.899 157.754C21.913 157.198 22.3678 156.754 22.924 156.754H61.7419C62.2981 156.754 62.7529 157.198 62.7668 157.754L63.7202 196.028C63.7301 196.423 63.5118 196.789 63.1591 196.968C62.8486 197.126 55.4504 200.792 46.5985 197.758C46.2263 197.631 45.96 197.301 45.9131 196.911C45.8916 196.733 44.0887 181.821 42.334 173.632C40.578 181.821 38.7774 196.733 38.756 196.911C38.7091 197.301 38.4428 197.631 38.0704 197.758C35.4953 198.641 33.0431 198.956 30.8527 198.956ZM47.8694 196.015C54.3121 197.996 59.8905 196.117 61.6535 195.395L60.7419 158.804H23.9241L23.0126 195.393C24.7796 196.111 30.379 197.986 36.7996 196.015C37.2532 192.333 39.4851 174.726 41.3645 169.214C41.5059 168.799 41.8961 168.52 42.3347 168.52C42.3349 168.52 42.3349 168.52 42.3351 168.52C42.7738 168.52 43.1639 168.799 43.3052 169.215C45.1811 174.727 47.4154 192.333 47.8694 196.015Z" fill="#371A45"/>
<path d="M35.9844 168.07C37.0856 168.109 38.0985 168.196 39.101 168.272C40.1005 168.352 41.0767 168.415 42.0464 168.456C43.0182 168.509 43.9773 168.491 44.9584 168.463C45.2023 168.448 45.4494 168.439 45.7011 168.435C45.9481 168.415 46.196 168.389 46.4515 168.374L46.8396 168.354C46.967 168.34 47.0933 168.32 47.2254 168.31C47.4864 168.283 47.7537 168.258 48.0382 168.253C47.8465 168.45 47.6376 168.626 47.4226 168.801C47.3163 168.891 47.2051 168.973 47.0938 169.057L46.7407 169.266C46.5011 169.398 46.2581 169.536 46.0068 169.651C45.7524 169.753 45.4934 169.849 45.2312 169.939C44.1789 170.265 43.0636 170.424 41.9694 170.362C40.8741 170.314 39.7936 170.102 38.7749 169.732C37.7621 169.352 36.7859 168.841 35.9844 168.07Z" fill="#371A45"/>
<path d="M44.1823 169.827C43.0918 169.827 42.1382 169.42 41.3454 168.617C38.437 165.669 38.7582 158.061 38.7735 157.738C38.794 157.3 39.1657 156.97 39.6045 156.981C40.043 157.002 40.3819 157.374 40.3616 157.812C40.269 159.817 40.4686 165.466 42.478 167.501C42.7902 167.817 43.1317 168.03 43.5096 168.142V157.775C43.5096 157.336 43.8655 156.98 44.3046 156.98C44.7437 156.98 45.0997 157.336 45.0997 157.775V169.03C45.0997 169.459 44.7598 169.81 44.3312 169.825C44.2814 169.826 44.2315 169.827 44.1823 169.827Z" fill="#371A45"/>
<path d="M30.1205 101.113C30.1205 101.113 28.5827 109.352 31.4386 114.404C31.4386 114.404 34.0749 110.23 35.6127 110.23C37.1505 110.23 41.5474 115.613 41.5474 115.613C41.5474 115.613 38.6883 102.981 30.1205 101.113Z" fill="#828282"/>
<path d="M51.6559 114.403C51.6559 114.403 49.0177 110.227 47.4799 110.227C45.966 110.227 41.684 115.442 41.5508 115.606C41.5849 115.449 42.4837 111.594 44.7152 107.869C46.5196 104.858 49.1852 101.933 52.9716 101.109C52.9716 101.109 52.9819 101.171 53.0023 101.291C53.2074 102.521 54.26 109.79 51.6559 114.403Z" fill="#828282"/>
<path d="M41.5478 116.636C41.2475 116.636 40.9533 116.504 40.7534 116.259C38.7049 113.753 36.315 111.436 35.5967 111.256C35.0334 111.362 33.4698 113.109 32.3052 114.95C32.1124 115.255 31.7715 115.437 31.4133 115.427C31.0529 115.418 30.7236 115.221 30.5461 114.907C27.5409 109.59 29.0471 101.274 29.1128 100.923C29.1635 100.651 29.3227 100.41 29.5537 100.257C29.7845 100.104 30.0677 100.05 30.3388 100.11C39.4395 102.093 42.4247 114.843 42.5473 115.384C42.6523 115.848 42.4243 116.324 41.9969 116.532C41.8532 116.602 41.6996 116.636 41.5478 116.636ZM30.9665 102.417C30.719 104.444 30.3955 108.837 31.624 112.323C32.7154 110.864 34.2563 109.203 35.6125 109.203C36.4887 109.203 37.7238 110.096 38.9601 111.259C37.5056 107.954 34.9616 103.834 30.9665 102.417Z" fill="#371A45"/>
<path d="M41.5464 116.636C41.3945 116.636 41.241 116.602 41.0973 116.532C40.6698 116.324 40.4419 115.848 40.5468 115.384C40.6695 114.843 43.6547 102.093 52.7554 100.11C53.026 100.05 53.3095 100.104 53.5405 100.257C53.7715 100.41 53.9307 100.651 53.9815 100.923C54.0471 101.275 55.5533 109.59 52.5481 114.907C52.3706 115.221 52.0413 115.418 51.6809 115.427C51.3135 115.436 50.9817 115.255 50.789 114.95C49.63 113.118 48.0756 111.379 47.4933 111.257C46.7698 111.445 44.3853 113.758 42.3408 116.26C42.1409 116.504 41.8467 116.636 41.5464 116.636ZM47.4815 109.203C48.8378 109.203 50.3787 110.865 51.4702 112.323C52.6987 108.837 52.3752 104.444 52.1277 102.417C48.1326 103.834 45.5887 107.954 44.1342 111.259C45.3704 110.096 46.6053 109.203 47.4815 109.203Z" fill="#371A45"/>
<g opacity="0.2">
<path d="M51.6559 114.406C51.6559 114.406 49.0177 110.23 47.4799 110.23C45.966 110.23 41.684 115.444 41.5508 115.608C41.5849 115.451 42.4837 111.596 44.7152 107.871C47.2748 106.976 49.6499 108.364 49.6499 108.364L53.0024 101.293C53.2074 102.523 54.26 109.792 51.6559 114.406Z" fill="#371A45"/>
</g>
<g opacity="0.2">
<path d="M31.2921 114.316C31.2921 114.316 33.9304 110.14 35.4682 110.14C36.982 110.14 41.264 115.354 41.3973 115.519C41.3632 115.361 40.4644 111.507 38.2328 107.782C35.6732 106.886 33.2981 108.274 33.2981 108.274L29.9456 101.203C29.7406 102.433 28.6881 109.702 31.2921 114.316Z" fill="#371A45"/>
</g>
<path d="M39.5237 122.089C40.067 121.546 40.067 120.665 39.5237 120.122C38.9803 119.578 38.0994 119.578 37.5561 120.122C37.0127 120.665 37.0127 121.546 37.5561 122.089C38.0994 122.633 38.9803 122.633 39.5237 122.089Z" fill="#371A45"/>
<path d="M48.8344 121.438C49.011 120.69 48.548 119.941 47.8001 119.764C47.0523 119.587 46.3029 120.05 46.1264 120.798C45.9498 121.546 46.4129 122.295 47.1607 122.472C47.9085 122.649 48.6579 122.186 48.8344 121.438Z" fill="#371A45"/>
<path d="M85.8223 35.6328C85.8223 35.6362 85.8223 35.6362 85.8223 35.6362C82.8868 37.4064 79.5446 38.148 77.4942 37.919L69.7299 49.4971L42.391 35.3629C42.3431 34.7785 47.3222 20.1316 47.3222 20.1316C47.3222 20.1316 42.391 13.9804 44.8583 6.36303C45.0052 5.90853 45.183 5.4882 45.3914 5.09521C48.6584 -1.10733 59.0165 0.16736 63.2882 6.36303C63.2882 6.36303 76.0282 -0.225627 81.5951 15.7369C81.5951 15.7369 90.5281 14.8586 91.7003 24.5264C92.3426 29.8199 89.3798 33.4867 85.8223 35.6328Z" fill="white"/>
<path d="M69.7835 49.7029L69.6574 49.6378L42.2401 35.463L42.2328 35.3753C42.1853 34.7938 46.2523 22.7868 47.145 20.1603C46.6124 19.4505 42.383 13.4896 44.7076 6.31344C44.8548 5.85799 45.0379 5.42277 45.2514 5.02018C46.5539 2.5477 49.0269 1.08132 52.2152 0.891731C56.4744 0.637519 60.9272 2.75129 63.3414 6.16054C64.16 5.7776 68.8314 3.78187 73.5182 5.64811C77.1345 7.08816 79.8885 10.4259 81.7055 15.5698C82.8051 15.5139 90.7574 15.4255 91.8583 24.5068C92.6055 30.663 88.5351 34.1613 85.9818 35.7219V35.7257L85.9048 35.7721C82.8194 37.6329 79.5214 38.2724 77.5737 38.0866L69.7835 49.7029ZM42.5607 35.2708L69.6773 49.2902L77.4166 37.7496L77.5125 37.7603C79.3796 37.9696 82.6171 37.362 85.6698 35.542L85.7409 35.4961C88.2225 33.999 92.2761 30.5856 91.5429 24.5448C90.4038 15.1472 81.9693 15.8599 81.6112 15.8944L81.4867 15.9065L81.4457 15.7885C79.6606 10.6708 76.9539 7.35846 73.4006 5.94341C68.3991 3.95201 63.4117 6.47804 63.3617 6.50367L63.2373 6.56797L63.1578 6.4526C60.8232 3.06649 56.4332 0.960356 52.2342 1.20897C49.1613 1.39176 46.7814 2.79804 45.5326 5.16862C45.3275 5.55544 45.1517 5.97324 45.0101 6.41132C42.5987 13.8557 47.3981 19.9707 47.4469 20.0316L47.5014 20.0996L47.4735 20.1822C45.5634 25.8004 42.7537 34.2364 42.5607 35.2708Z" fill="#371A45"/>
<path d="M82.5356 15.6163L81.8261 19.8756L80.582 15.7666L80.5748 15.7429C80.4134 15.2096 80.7148 14.6464 81.2481 14.485C81.7814 14.3235 82.3445 14.625 82.506 15.1582C82.5521 15.3102 82.5595 15.4694 82.5356 15.6163Z" fill="#371A45"/>
<g opacity="0.2">
<path d="M85.8223 35.6308C85.8223 35.6342 85.8223 35.6342 85.8223 35.6342C82.8868 37.4044 79.5446 38.146 77.4942 37.9171L69.7299 49.4951L42.391 35.3609C42.3431 34.7765 47.3222 20.1297 47.3222 20.1297C47.3222 20.1297 42.391 13.9784 44.8583 6.36106C45.0052 5.90657 45.183 5.48623 45.3914 5.09325C46.5909 6.80194 47.9493 6.36106 49.065 4.89844C49.065 4.89844 54.256 17.7853 75.3208 13.2471C75.3208 13.2471 78.6663 29.6983 87.8933 30.6278C87.8933 30.6278 84.8005 33.0952 85.8223 35.6308Z" fill="#371A45"/>
</g>
<path d="M69.7284 50.5211C69.5691 50.5211 69.4083 50.484 69.2583 50.4065L41.9193 36.2722C41.6053 36.11 41.3971 35.7974 41.3682 35.4451C41.3474 35.1895 41.3041 34.661 46.1791 20.3058C45.041 18.6669 41.6415 12.9635 43.8823 6.04581C44.9299 2.80847 47.5855 0.650943 51.1682 0.126746C55.7342 -0.541888 60.7294 1.48169 63.6204 5.09288C65.3351 4.40548 69.525 3.12571 73.8374 4.84261C77.5553 6.32317 80.4027 9.63702 82.3085 14.6982C84.7107 14.7496 91.6576 15.6638 92.7169 24.4017C93.1675 28.1146 92.0027 31.4937 89.3484 34.1738C86.1606 37.3928 81.2529 39.0729 78.0154 38.9802L70.5806 50.0669C70.3843 50.3595 70.0608 50.5211 69.7284 50.5211ZM43.5719 34.8185L69.3872 48.165L76.6419 37.3468C76.855 37.029 77.2266 36.8562 77.6071 36.8989C79.839 37.1475 84.6579 35.996 87.8916 32.731C90.1204 30.4804 91.0592 27.7611 90.6816 24.6486C89.6477 16.12 82.015 16.7274 81.6917 16.7563C81.2185 16.8007 80.7812 16.518 80.6262 16.0732C78.9309 11.2125 76.3981 8.07747 73.0972 6.75502C68.4796 4.90443 63.8031 7.24958 63.7563 7.2735C63.2987 7.50844 62.7354 7.36775 62.4432 6.94373C60.1232 3.5781 55.5075 1.56419 51.4647 2.15567C49.8306 2.39481 46.9259 3.30023 45.8329 6.67762C43.5727 13.6551 48.0768 19.4333 48.1226 19.4907C48.3396 19.7639 48.4042 20.1302 48.2919 20.4605C46.6952 25.1577 44.2333 32.5311 43.5719 34.8185Z" fill="#371A45"/>
<path d="M49.3833 14.456C49.2426 14.1413 49.1641 13.8919 49.0716 13.6132C48.9876 13.341 48.9102 13.0699 48.8433 12.7978C48.7085 12.2538 48.604 11.7087 48.5354 11.162C48.4651 10.6161 48.4216 10.0711 48.4186 9.52875C48.4054 8.98801 48.4443 8.44925 48.4949 7.92188C48.6149 8.44124 48.7456 8.94979 48.9238 9.44155C49.0916 9.93471 49.2956 10.4118 49.5191 10.873C49.7407 11.3349 49.9916 11.7792 50.2617 12.2034C50.3961 12.4158 50.5378 12.6217 50.6818 12.8221C50.824 13.0126 50.9873 13.2294 51.1185 13.3637C51.5227 13.7774 51.5152 14.4405 51.1015 14.8448C50.6878 15.249 50.0247 15.2414 49.6204 14.8278C49.5324 14.7376 49.4639 14.6358 49.4149 14.5273L49.3833 14.456Z" fill="#371A45"/>
<path d="M80.143 32.0188C80.2819 32.0928 80.5025 32.1729 80.6939 32.2425C80.8941 32.3122 81.0985 32.3793 81.3065 32.4389C81.7221 32.5591 82.149 32.6654 82.5831 32.747C83.4516 32.9145 84.3488 33.0055 85.263 33.0168C84.4098 33.3418 83.5131 33.5979 82.5866 33.7723C82.1232 33.8616 81.6526 33.9252 81.174 33.971C80.9347 33.9945 80.6932 34.0094 80.4486 34.0199C80.1958 34.0264 79.9728 34.0365 79.6733 34.0147L79.5687 34.0071C78.9861 33.9646 78.5483 33.458 78.5907 32.8754C78.6332 32.2928 79.1398 31.8549 79.7224 31.8974C79.8726 31.9083 80.0177 31.9528 80.143 32.0188Z" fill="#371A45"/>
<path d="M70.3843 17.9354C70.7682 17.8291 71.2117 17.6598 71.6199 17.49C72.035 17.3153 72.4437 17.1201 72.8445 16.9043C73.6406 16.4671 74.4027 15.9455 75.0397 15.2422C74.8656 15.6813 74.6405 16.1118 74.3783 16.5229C74.1111 16.9286 73.8152 17.3222 73.4952 17.6965C73.1737 18.0683 72.8324 18.4265 72.4733 18.7692C72.1063 19.1146 71.7551 19.4331 71.3157 19.7621L71.2903 19.7811C70.8278 20.1273 70.1722 20.0331 69.8259 19.5706C69.4797 19.1081 69.5739 18.4524 70.0364 18.1062C70.143 18.0264 70.2634 17.9693 70.3843 17.9354Z" fill="#371A45"/>
<path d="M63.8639 7.21085C63.5607 7.31923 63.2033 7.49095 62.8774 7.65701C62.5452 7.82822 62.2184 8.01533 61.8978 8.21714C61.2566 8.62158 60.648 9.09012 60.1016 9.65941C60.3544 8.91325 60.7271 8.18369 61.1688 7.49635C61.3898 7.15208 61.6268 6.81493 61.8796 6.48675C62.1396 6.15476 62.3856 5.84789 62.7122 5.51449L62.7519 5.47398C63.1608 5.0565 63.8307 5.04951 64.2482 5.45846C64.6657 5.86747 64.6727 6.53738 64.2637 6.95486C64.1488 7.07214 64.0085 7.15851 63.8639 7.21085Z" fill="#371A45"/>
<path d="M69.7284 50.5218C69.5691 50.5218 69.4083 50.4847 69.2583 50.4071L41.9193 36.2729C41.6054 36.1107 41.3971 35.7981 41.3683 35.4458C41.3471 35.1872 41.3032 34.6494 46.3509 19.801C46.3631 19.7647 46.3776 19.7291 46.3938 19.6945L49.3225 13.4713C49.4763 13.1446 49.7908 12.9228 50.1502 12.8877C50.5096 12.8526 50.8612 13.0091 51.0755 13.2999C51.3457 13.6627 57.8697 22.1831 70.52 17.8789C70.8743 17.7585 71.2691 17.8408 71.5458 18.0963C71.8219 18.3512 71.9362 18.7369 71.8439 19.1013C71.7641 19.4284 69.9831 27.264 80.3425 32.0885C80.5925 32.205 80.785 32.4172 80.8766 32.6775C80.9682 32.9377 80.9511 33.2238 80.8291 33.4713L78.4129 38.3718C78.3928 38.4125 78.3701 38.4517 78.3449 38.4893L70.5806 50.0675C70.3844 50.3601 70.0608 50.5218 69.7284 50.5218ZM43.5719 34.8191L69.3872 48.1657L76.6041 37.404L78.536 33.4858C70.4782 29.3243 69.5813 23.2156 69.6683 20.2857C63.0726 22.102 58.0865 20.6414 54.9889 19.0168C52.9279 17.9358 51.436 16.6621 50.5187 15.7455L48.2737 20.5155C46.6763 25.2152 44.2307 32.5406 43.5719 34.8191Z" fill="#371A45"/>
<path d="M43.0261 36.2024C42.9519 36.2024 42.8766 36.1863 42.8052 36.1521C42.5497 36.0299 42.4418 35.7239 42.564 35.4684C44.5627 31.2914 47.8782 24.8108 52.4184 16.2071C52.5505 15.957 52.86 15.8607 53.111 15.993C53.3614 16.1251 53.4573 16.4352 53.3252 16.6856C48.7911 25.2775 45.4817 31.7458 43.4888 35.9109C43.4008 36.095 43.2172 36.2024 43.0261 36.2024Z" fill="#371A45"/>
<path d="M45.1413 37.295C45.067 37.295 44.9915 37.2788 44.9201 37.2445C44.6648 37.122 44.557 36.816 44.6794 36.5607C47.2065 31.2904 51.368 23.3076 54.4142 17.539C54.5463 17.2885 54.8566 17.1929 55.1067 17.325C55.3572 17.4572 55.453 17.7673 55.3207 18.0176C52.2789 23.7783 48.1239 31.7484 45.6039 37.0039C45.5157 37.1877 45.3323 37.295 45.1413 37.295Z" fill="#371A45"/>
<path d="M47.2566 38.3895C47.182 38.3895 47.1066 38.3732 47.035 38.3389C46.7797 38.2164 46.6723 37.91 46.7948 37.6549C49.6729 31.6618 54.5854 22.3224 56.5638 18.5851C56.6962 18.335 57.0062 18.24 57.2567 18.3719C57.5069 18.5044 57.6024 18.8146 57.4699 19.0649C55.4942 22.7968 50.5892 32.122 47.7189 38.0987C47.6307 38.2824 47.4474 38.3895 47.2566 38.3895Z" fill="#371A45"/>
<path d="M49.3776 39.4852C49.3031 39.4852 49.2275 39.4689 49.1559 39.4346C48.9008 39.3119 48.7933 39.0055 48.9159 38.7504C51.7087 32.9387 56.3466 24.092 58.8625 19.3357C58.9948 19.0856 59.3046 18.9893 59.5554 19.1224C59.8055 19.2547 59.9012 19.565 59.7687 19.8152C57.2562 24.5648 52.6253 33.3982 49.8401 39.1945C49.7517 39.378 49.5685 39.4852 49.3776 39.4852Z" fill="#371A45"/>
<path d="M51.4929 40.5819C51.4183 40.5819 51.3427 40.5656 51.2711 40.5312C51.0158 40.4085 50.9085 40.1023 51.0312 39.8472C53.8722 33.9373 58.7031 24.7332 61.33 19.7728C61.4623 19.5224 61.7724 19.4273 62.0229 19.5597C62.273 19.6922 62.3685 20.0024 62.236 20.2526C59.6128 25.2065 54.7886 34.3971 51.9552 40.2913C51.8669 40.4747 51.6837 40.5819 51.4929 40.5819Z" fill="#371A45"/>
<path d="M53.6043 41.6755C53.5296 41.6755 53.4538 41.6593 53.3819 41.6246C53.127 41.5016 53.0198 41.1953 53.1428 40.9401C56.4281 34.1259 62.2774 23.0779 63.9919 19.8541C64.1249 19.6041 64.4352 19.5092 64.6852 19.6422C64.9352 19.7751 65.03 20.0855 64.8972 20.3355C63.1848 23.5551 57.3435 34.588 54.0664 41.3855C53.9781 41.5687 53.795 41.6755 53.6043 41.6755Z" fill="#371A45"/>
<path d="M55.7312 42.7717C55.6562 42.7717 55.5803 42.7552 55.5082 42.7204C55.2534 42.5971 55.1467 42.2905 55.27 42.0356C58.8908 34.5523 65.5381 22.0263 66.8561 19.5498C66.9396 19.3794 67.1142 19.2617 67.3163 19.2617C67.5995 19.2617 67.829 19.4895 67.829 19.7726V19.776C67.829 19.86 67.8082 19.9426 67.7687 20.0169C66.4706 22.4558 59.8124 35.0011 56.193 42.4822C56.1045 42.6651 55.9216 42.7717 55.7312 42.7717Z" fill="#371A45"/>
<path d="M57.8425 43.8669C57.7678 43.8669 57.6921 43.8507 57.6203 43.816C57.3652 43.693 57.2582 43.3867 57.381 43.1317C61.0476 35.5251 67.838 22.5828 69.832 18.7973C69.9637 18.5464 70.2746 18.4509 70.5243 18.5825C70.7749 18.7145 70.8708 19.0244 70.7389 19.2749C68.7473 23.0566 61.9638 35.9855 58.3046 43.5767C58.2163 43.7602 58.0332 43.8669 57.8425 43.8669Z" fill="#371A45"/>
<path d="M59.9578 44.9577C59.8828 44.9577 59.8068 44.9413 59.7348 44.9065C59.48 44.7832 59.3733 44.4765 59.4966 44.2217C63.0655 36.8461 69.2432 25.2247 70.468 22.9282C70.5515 22.7582 70.7261 22.6406 70.9279 22.6406C71.2112 22.6406 71.4407 22.8684 71.4407 23.1515V23.1549C71.4407 23.239 71.4199 23.3219 71.3801 23.3961C70.1761 25.6545 63.9876 37.2942 60.4196 44.6683C60.331 44.8512 60.1481 44.9577 59.9578 44.9577Z" fill="#371A45"/>
<path d="M62.0769 46.0528C62.0019 46.0528 61.9258 46.0363 61.8539 46.0014C61.5991 45.8781 61.4924 45.5716 61.6158 45.3168C64.5074 39.343 69.1013 30.5958 71.5823 25.9133C71.7152 25.6629 72.0245 25.5679 72.2754 25.7004C72.5254 25.833 72.6208 26.1433 72.4885 26.3934C70.0106 31.0696 65.423 39.8044 62.5384 45.7634C62.45 45.9462 62.2672 46.0528 62.0769 46.0528Z" fill="#371A45"/>
<path d="M64.196 47.1484C64.1211 47.1484 64.0448 47.1319 63.9727 47.097C63.7181 46.9736 63.6116 46.6669 63.735 46.4121C65.7588 42.236 68.9094 36.0899 73.0996 28.1445C73.2319 27.8939 73.5415 27.7987 73.7922 27.9302C74.0425 28.0622 74.1385 28.3723 74.0065 28.6227C69.8218 36.5579 66.6762 42.6936 64.6577 46.8594C64.569 47.0421 64.3863 47.1484 64.196 47.1484Z" fill="#371A45"/>
<path d="M66.3112 48.2445C66.236 48.2445 66.16 48.2279 66.0879 48.193C65.8331 48.0695 65.7267 47.7629 65.8504 47.5082C68.359 42.3344 72.1377 35.0826 74.8663 29.9103C74.9986 29.6595 75.3088 29.5641 75.5588 29.696C75.8091 29.8282 75.905 30.1382 75.773 30.3885C73.0483 35.5539 69.2751 42.7947 66.7727 47.9554C66.6842 48.1382 66.5013 48.2445 66.3112 48.2445Z" fill="#371A45"/>
<path d="M68.4304 49.336C68.3552 49.336 68.2791 49.3194 68.2068 49.2844C67.9522 49.1608 67.8459 48.8541 67.9695 48.5995C70.6126 43.1525 74.6457 35.4477 76.8147 31.3399C76.9469 31.0896 77.2572 30.9935 77.5075 31.1259C77.7578 31.2581 77.8535 31.5682 77.7215 31.8185C75.5557 35.9207 71.5285 43.6137 68.8919 49.047C68.8033 49.2296 68.6204 49.336 68.4304 49.336Z" fill="#371A45"/>
<path d="M89.5584 94.2205V94.217C89.1586 92.2623 88.2837 90.6322 87.0364 89.6377C86.7254 89.3917 86.3939 89.1867 86.0419 89.0226C83.3183 87.7684 78.3734 90.7962 75.6907 96.6057C74.3135 99.5891 73.3669 102.815 73.7326 105.306C73.9548 106.837 73.7771 108.392 73.2712 109.848L73.2678 109.851C73.1585 110.179 73.0286 110.501 72.8816 110.815L70.7252 115.487L69.1156 118.976L67.1438 123.248L59.4752 139.859L58.867 141.175L58.4911 141.985L58.4296 142.122C58.2792 142.443 58.2006 142.778 58.1766 143.109C58.1186 143.947 58.4398 144.777 59.0549 145.351C59.2668 145.556 59.5197 145.73 59.7999 145.86C60.1827 146.038 60.5893 146.123 60.9857 146.123C62.0519 146.123 63.0703 145.515 63.5488 144.483L64.3587 142.727L65.2131 140.874L78.0487 113.071C78.3905 112.332 78.8962 111.687 79.5285 111.198C79.9419 110.877 80.4067 110.627 80.9125 110.463C83.7182 109.547 86.6058 106.766 88.4034 102.877C89.7771 99.9036 90.0813 96.7835 89.5584 94.2205Z" fill="#C78D54"/>
<path d="M60.9846 146.281C60.5567 146.281 60.1235 146.185 59.7319 146.003C59.4372 145.866 59.1718 145.685 58.9432 145.464C58.3026 144.866 57.9555 143.98 58.0167 143.097C58.0437 142.726 58.1338 142.374 58.2844 142.053L58.7215 141.106L72.7361 110.747C72.8836 110.431 73.0112 110.113 73.1158 109.799L73.1313 109.761C73.6307 108.307 73.7838 106.775 73.5739 105.327C73.1581 102.493 74.4164 98.9828 75.5452 96.5374C78.356 90.4507 83.3677 87.615 86.107 88.8765C86.4685 89.0448 86.8138 89.2583 87.1337 89.5112C88.385 90.5087 89.3008 92.1678 89.7132 94.1835L89.7163 94.2027C90.2715 96.9461 89.8455 100.13 88.5464 102.942C86.8021 106.715 83.8956 109.655 80.9606 110.612C80.479 110.769 80.0296 111.007 79.6247 111.322C79.0206 111.789 78.525 112.416 78.1918 113.136L63.692 144.548C63.204 145.601 62.1413 146.281 60.9846 146.281ZM73.4062 109.934C73.3 110.248 73.1715 110.566 73.0246 110.881L58.5734 142.185C58.4383 142.474 58.358 142.788 58.3339 143.119C58.2793 143.908 58.5889 144.698 59.1623 145.233C59.3673 145.432 59.6033 145.593 59.8656 145.714C60.2157 145.877 60.6026 145.963 60.9846 145.963C62.018 145.963 62.9673 145.355 63.4034 144.415L77.903 113.002C78.2579 112.236 78.7859 111.568 79.43 111.071C79.8639 110.734 80.3458 110.478 80.8623 110.31C83.7156 109.379 86.5494 106.504 88.2577 102.808C89.5316 100.052 89.9483 96.9325 89.4014 94.2506L89.3983 94.2315C88.9993 92.296 88.1253 90.7085 86.9363 89.7604C86.636 89.5232 86.3121 89.3227 85.9735 89.1651C83.3742 87.9678 78.4871 90.9245 75.8341 96.6708C74.7232 99.077 73.4841 102.524 73.8888 105.282C74.1074 106.79 73.9456 108.387 73.4204 109.899L73.4062 109.934Z" fill="#371A45"/>
<g opacity="0.6">
<path d="M86.0419 89.0187C83.3183 87.7645 78.3734 90.7923 75.6907 96.6018C74.3135 99.5852 73.3669 102.811 73.7326 105.302C73.9548 106.833 73.7771 108.388 73.2712 109.844L73.2678 109.848C73.1585 110.176 73.0286 110.497 72.8816 110.811L70.7252 115.483L69.1156 118.972L67.1438 123.244L59.4752 139.855L58.867 141.171L58.4911 141.981L58.4296 142.118C58.2792 142.439 58.2006 142.774 58.1766 143.105C58.1186 143.943 58.4398 144.773 59.0549 145.347C59.2668 145.552 59.5197 145.727 59.7999 145.856C60.1827 146.034 60.5893 146.12 60.9857 146.12C61.0644 146.12 61.143 146.116 61.2216 146.109C61.1771 146.075 61.1327 146.037 61.0917 145.996C60.4766 145.422 60.1554 144.592 60.2134 143.755C60.2373 143.423 60.316 143.088 60.4663 142.767L60.5278 142.63L60.9038 141.82L61.512 140.505L69.1806 123.893L71.1524 119.621L72.762 116.132L74.9184 111.461C75.0654 111.146 75.1952 110.825 75.3046 110.497L75.308 110.493C75.8139 109.038 75.9915 107.483 75.7694 105.952C75.4038 103.46 76.3504 100.234 77.7275 97.2511C80.0035 92.3266 83.9027 89.398 86.6982 89.3877C86.4896 89.2477 86.2709 89.1247 86.0419 89.0187Z" fill="white"/>
</g>
<g opacity="0.2">
<path d="M89.5555 93.6423V93.6389C89.1864 91.8413 88.4175 90.3172 87.3239 89.3125C87.5905 89.9208 87.799 90.5837 87.9425 91.2912V91.2946C88.4654 93.8577 88.1613 96.9777 86.7875 99.9508C84.99 103.84 82.1023 106.622 79.2966 107.537C78.7908 107.701 78.326 107.951 77.9126 108.272C77.2804 108.761 76.7746 109.407 76.4328 110.145L63.5972 137.949L62.7428 139.801L61.9329 141.557C61.4545 142.589 60.4362 143.198 59.3699 143.198C58.9735 143.198 58.5668 143.112 58.1841 142.935C58.1806 142.935 58.1773 142.931 58.1738 142.931C58.2251 143.628 58.536 144.291 59.0521 144.773C59.2639 144.978 59.5168 145.152 59.797 145.282C60.1798 145.46 60.5865 145.545 60.9829 145.545C62.0491 145.545 63.0675 144.937 63.5459 143.905L64.3558 142.148L65.2102 140.296L78.0458 112.492C78.3875 111.754 78.8933 111.108 79.5255 110.62C79.939 110.299 80.4037 110.049 80.9096 109.885C83.7152 108.969 86.6029 106.187 88.4005 102.298C89.7742 99.3253 90.0784 96.2053 89.5555 93.6423Z" fill="#371A45"/>
</g>
<path d="M60.986 147.147C60.4329 147.147 59.8736 147.023 59.3685 146.788C58.9862 146.611 58.6407 146.375 58.3421 146.086C57.5115 145.311 57.0737 144.195 57.1539 143.037C57.1888 142.557 57.3055 142.103 57.5011 141.685L57.9371 140.742L71.951 110.384C72.0861 110.094 72.2016 109.807 72.2957 109.525C72.3035 109.501 72.3122 109.478 72.3218 109.456C72.7699 108.138 72.9072 106.755 72.718 105.452C72.2715 102.408 73.582 98.7263 74.7602 96.1743C77.5418 90.1497 82.9041 86.4468 86.4707 88.0896C86.8965 88.2879 87.2996 88.5368 87.6723 88.8315C89.0847 89.9577 90.1098 91.7957 90.5629 94.0096C90.5657 94.0225 90.5678 94.0356 90.57 94.0484C91.1647 97.0064 90.7262 100.292 89.334 103.305C87.4642 107.35 84.4348 110.39 81.2305 111.436C80.8432 111.562 80.4827 111.753 80.1572 112.006C79.661 112.389 79.2542 112.905 78.9787 113.5L64.4799 144.911C63.8499 146.27 62.4788 147.147 60.986 147.147ZM74.2196 110.236C74.1047 110.572 73.9675 110.912 73.8107 111.247L59.3648 142.54C59.2691 142.745 59.2157 142.956 59.1992 143.182C59.1626 143.71 59.3702 144.241 59.7547 144.6C59.8992 144.739 60.0593 144.849 60.2311 144.928C60.4685 145.038 60.7292 145.096 60.986 145.096C61.6832 145.096 62.3241 144.686 62.6189 144.05L77.118 112.639C77.5316 111.746 78.1481 110.967 78.9015 110.385C79.4133 109.987 79.9844 109.684 80.5964 109.486C83.2265 108.628 85.8621 105.929 87.4726 102.445C88.6707 99.8521 89.0648 96.9285 88.554 94.4234C88.5518 94.4119 88.5496 94.4003 88.5477 94.3888C88.1878 92.6592 87.4251 91.2569 86.3975 90.4374C86.153 90.2442 85.8866 90.0795 85.6093 89.9503C83.6879 89.0646 79.23 91.385 76.6217 97.0338C75.1211 100.284 74.4552 103.168 74.7468 105.156C74.9856 106.802 74.8102 108.54 74.24 110.183C74.2336 110.201 74.2271 110.218 74.2196 110.236Z" fill="#371A45"/>
<path d="M60.0009 145.813C59.8338 145.813 59.6642 145.803 59.4931 145.781C59.3287 145.76 59.1556 145.728 58.9786 145.685C58.8273 145.649 58.7129 145.511 58.7129 145.349C58.7129 145.161 58.866 145.008 59.0546 145.008C59.0964 145.008 59.1365 145.015 59.1735 145.029C59.314 145.061 59.4505 145.086 59.5798 145.103C60.3033 145.195 60.9856 145.05 61.5027 144.695C61.8431 144.462 62.1185 144.138 62.4103 143.793C62.7472 143.396 63.0955 142.985 63.5684 142.696C63.7824 142.564 64.0187 142.462 64.2694 142.395C64.452 142.345 64.6391 142.454 64.6883 142.636C64.7373 142.818 64.6296 143.006 64.4473 143.055C64.2607 143.105 64.0852 143.181 63.9262 143.279C63.5458 143.511 63.2474 143.863 62.9315 144.236C62.6234 144.599 62.3048 144.975 61.8892 145.259C61.36 145.622 60.7029 145.813 60.0009 145.813Z" fill="#371A45"/>
<path d="M78.7394 107.595C78.3922 107.595 78.059 107.525 77.7453 107.38C75.5541 106.367 75.5196 102.422 77.6612 97.7847C78.5754 95.805 79.8918 94.0486 81.3682 92.8395C82.8076 91.6607 84.1377 91.2171 85.0196 91.6245C86.9811 92.5295 87.036 97.11 85.1342 101.235C85.1342 101.235 85.1342 101.235 85.1342 101.235C83.33 105.139 80.7943 107.595 78.7394 107.595ZM84.3088 92.1619C83.6663 92.1619 82.7418 92.5981 81.8014 93.3682C80.4033 94.5132 79.1533 96.1835 78.2816 98.0714C76.3715 102.207 76.264 105.943 78.032 106.76C79.8136 107.583 82.602 105.085 84.5137 100.949V100.949C86.368 96.9268 86.1497 92.8985 84.733 92.245C84.6119 92.1891 84.469 92.1619 84.3088 92.1619Z" fill="#371A45"/>
<path d="M78.7394 107.595C78.3922 107.595 78.059 107.525 77.7453 107.38C75.5541 106.367 75.5196 102.422 77.6612 97.7847C78.5754 95.805 79.8918 94.0486 81.3682 92.8395C82.8076 91.6607 84.1377 91.2171 85.0196 91.6245C86.9811 92.5295 87.036 97.11 85.1342 101.235C85.1342 101.235 85.1342 101.235 85.1342 101.235C83.33 105.139 80.7943 107.595 78.7394 107.595ZM84.3088 92.1619C83.6663 92.1619 82.7418 92.5981 81.8014 93.3682C80.4033 94.5132 79.1533 96.1835 78.2816 98.0714C76.3715 102.207 76.264 105.943 78.032 106.76C79.8136 107.583 82.602 105.085 84.5137 100.949V100.949C86.368 96.9268 86.1497 92.8985 84.733 92.245C84.6119 92.1891 84.469 92.1619 84.3088 92.1619Z" fill="#371A45"/>
<g opacity="0.5">
<path d="M70.7249 115.643C70.6168 115.643 70.5106 115.592 70.4442 115.496C70.3364 115.342 70.3743 115.129 70.5289 115.021C71.3563 114.444 72.0444 113.627 72.773 112.762C73.7686 111.581 74.7981 110.359 76.2384 109.757C76.9309 109.469 77.6684 109.348 78.3818 109.23C79.1588 109.103 79.8926 108.982 80.5556 108.664C81.7861 108.073 82.6267 106.866 83.3686 105.8L86.1372 101.832C86.6465 101.103 87.2238 100.276 87.6775 99.4269C88.5132 97.865 89.0312 96.0403 89.2176 94.0034C89.2344 93.8218 89.394 93.6876 89.5735 93.6915C89.7561 93.6999 89.8995 93.8486 89.8995 94.0312V94.0347C89.7036 96.1942 89.1592 98.1065 88.2803 99.7491C87.8074 100.634 87.218 101.479 86.6974 102.224L83.9292 106.191C83.1786 107.269 82.2442 108.612 80.8513 109.28C80.1001 109.641 79.2831 109.775 78.493 109.905C77.7871 110.021 77.1204 110.131 76.5011 110.388C75.2142 110.926 74.2388 112.083 73.2959 113.202C72.5708 114.063 71.8208 114.953 70.9201 115.581C70.8606 115.623 70.7923 115.643 70.7249 115.643Z" fill="#371A45"/>
<path d="M69.1148 119.313C68.9474 119.313 68.8012 119.19 68.7769 119.02C68.7502 118.833 68.8797 118.66 69.0667 118.633C70.0856 118.487 71.2027 117.889 72.1312 116.993C72.7334 116.411 73.2738 115.735 73.7961 115.083C74.4132 114.311 75.0514 113.514 75.8119 112.838C76.8426 111.92 78.096 111.237 79.4363 110.864C79.6161 110.814 79.8065 110.919 79.8571 111.101C79.9078 111.283 79.8015 111.472 79.6196 111.522C78.3792 111.868 77.2197 112.499 76.2662 113.349C75.5489 113.986 74.929 114.761 74.3296 115.51C73.7939 116.179 73.2399 116.872 72.6061 117.484C71.5763 118.478 70.3217 119.144 69.1636 119.309C69.1472 119.312 69.131 119.313 69.1148 119.313Z" fill="#371A45"/>
<path d="M67.1443 123.586C66.9813 123.586 66.8371 123.469 66.8079 123.303C66.7753 123.117 66.8995 122.94 67.0856 122.907C68.8998 122.59 70.5833 121.683 71.8264 120.355C72.0631 120.102 72.2935 119.825 72.5162 119.557C73.0475 118.917 73.5975 118.255 74.3295 117.792C74.4891 117.69 74.7 117.738 74.8012 117.897C74.9021 118.057 74.8546 118.268 74.6953 118.369C74.0544 118.775 73.5624 119.367 73.0416 119.994C72.8127 120.269 72.5758 120.555 72.3252 120.822C70.9817 122.258 69.1628 123.237 67.2036 123.581C67.1837 123.584 67.1639 123.586 67.1443 123.586Z" fill="#371A45"/>
<path d="M73.2675 110.19C73.1809 110.19 73.094 110.157 73.0275 110.092C72.893 109.959 72.8918 109.743 73.0244 109.608C73.6378 108.987 74.3362 108.451 75.1005 108.014C75.2641 107.92 75.4731 107.977 75.5666 108.141C75.6604 108.305 75.6035 108.514 75.4396 108.607C74.7297 109.014 74.0806 109.512 73.5108 110.089C73.4439 110.156 73.3558 110.19 73.2675 110.19Z" fill="#371A45"/>
<path d="M85.1229 100.269C85.035 100.269 84.9471 100.236 84.8801 100.168C84.7475 100.034 84.7484 99.8179 84.8822 99.685C86.3596 98.2209 87.3045 96.1904 87.4753 94.1142C87.5927 92.6456 87.3331 91.1443 86.7244 89.7732C86.648 89.6007 86.7257 89.3989 86.8979 89.3222C87.0721 89.2462 87.2731 89.3234 87.3492 89.4959C88.0038 90.9707 88.283 92.5868 88.1566 94.1694C87.9725 96.4064 86.9545 98.5935 85.3635 100.17C85.2968 100.236 85.2099 100.269 85.1229 100.269Z" fill="#371A45"/>
<path d="M59.9908 143.682C59.345 143.682 58.711 143.558 58.1554 143.449C57.9721 143.403 57.8301 143.21 57.8758 143.027C57.9216 142.844 58.0769 142.726 58.2595 142.772L58.1766 143.103L58.2729 142.775C59.1581 142.949 60.2424 143.161 61.137 142.797C61.6498 142.588 62.0872 142.204 62.5504 141.797C63.1794 141.244 63.8299 140.672 64.7092 140.544C64.8995 140.518 65.0729 140.513 65.2432 140.528C65.4313 140.544 65.5701 140.71 65.5533 140.898C65.5364 141.086 65.3665 141.225 65.1827 141.208C65.0642 141.198 64.9407 141.202 64.8046 141.22C64.1289 141.319 63.5815 141.8 63.0017 142.31C62.5163 142.737 62.0143 143.178 61.3944 143.43C60.9378 143.616 60.4611 143.682 59.9908 143.682Z" fill="#371A45"/>
<path d="M59.0883 141.553C58.9599 141.553 58.8381 141.529 58.7308 141.483C58.5579 141.407 58.4785 141.206 58.5538 141.033C58.629 140.86 58.8303 140.78 59.0035 140.856C59.0169 140.862 59.0495 140.869 59.1104 140.869C59.3849 140.864 59.6532 140.73 59.8177 140.518C59.9329 140.37 60.1477 140.343 60.2971 140.459C60.446 140.575 60.4728 140.789 60.3569 140.938C60.0646 141.314 59.6059 141.543 59.13 141.552C59.116 141.552 59.102 141.553 59.0883 141.553Z" fill="#371A45"/>
<path d="M59.2971 142.494C58.9798 142.494 58.6576 142.427 58.3547 142.296C58.1814 142.221 58.1017 142.02 58.1765 141.846C58.2514 141.673 58.4529 141.594 58.6257 141.668C58.8843 141.78 59.1604 141.827 59.4222 141.806C60.0127 141.755 60.5689 141.335 60.774 140.783C60.8352 140.622 60.8453 140.487 60.802 140.418C60.7788 140.38 60.7223 140.328 60.5677 140.266C60.3293 140.169 59.972 140.075 59.6135 140.17C59.4379 140.24 59.2334 140.156 59.1632 139.981C59.0932 139.806 59.1724 139.609 59.3477 139.539C59.3844 139.524 59.4219 139.511 59.4587 139.504C59.8677 139.395 60.3463 139.438 60.8234 139.632C60.9925 139.7 61.2367 139.818 61.3827 140.058C61.5445 140.314 61.5561 140.65 61.4137 141.024C61.1158 141.824 60.3381 142.413 59.4797 142.487C59.4191 142.492 59.3582 142.494 59.2971 142.494Z" fill="#371A45"/>
<path d="M79.2285 99.335C79.1934 99.335 79.1581 99.3297 79.123 99.3182C78.9434 99.2598 78.8454 99.0671 78.9034 98.8876C79.7742 96.209 81.6583 93.8404 84.0728 92.3892C84.5498 92.1025 85.12 91.8187 85.7467 91.8846C85.9346 91.9047 86.0703 92.0729 86.0504 92.2607C86.0305 92.4484 85.8601 92.5843 85.6747 92.5644C85.2477 92.5181 84.8048 92.7467 84.425 92.9751C82.1496 94.3426 80.3742 96.5747 79.5537 99.0989C79.5065 99.2432 79.3727 99.335 79.2285 99.335Z" fill="#371A45"/>
<path d="M79.9101 102.728C79.7452 102.728 79.6002 102.609 79.5732 102.441C79.3182 100.863 79.7005 99.1335 80.6496 97.5729C81.4238 96.2993 82.5526 95.1374 84.101 94.0206C84.7482 93.5539 85.5299 93.054 86.4193 92.8852C86.6037 92.849 86.7836 92.9719 86.8186 93.1573C86.8537 93.3427 86.732 93.5216 86.5466 93.5566C85.7907 93.7001 85.1166 94.1308 84.501 94.5749C83.0281 95.6372 81.9592 96.7338 81.2334 97.9278C80.3688 99.3497 80.0188 100.914 80.2477 102.332C80.2778 102.518 80.1511 102.694 79.9648 102.724C79.9465 102.727 79.9282 102.728 79.9101 102.728Z" fill="#371A45"/>
<path d="M82.1493 102.383C81.8357 102.383 81.522 102.262 81.3307 101.984C81.1683 101.748 81.1435 101.472 81.141 101.232C81.1177 99.1637 82.2661 97.1703 84.067 96.1535C84.2319 96.0609 84.4399 96.1188 84.5325 96.2829C84.6253 96.4472 84.5673 96.6558 84.403 96.7484C82.8403 97.631 81.804 99.4296 81.8242 101.224C81.8257 101.361 81.8354 101.512 81.8934 101.596C81.9748 101.714 82.2136 101.736 82.3944 101.642C82.6248 101.523 82.8009 101.276 82.976 101.012C83.4369 100.316 83.8788 99.5606 83.9912 98.7518C83.6568 99.081 83.3826 99.4791 83.1953 99.9086C83.1198 100.081 82.9189 100.161 82.7453 100.085C82.5723 100.01 82.4931 99.8083 82.5686 99.6353C82.8053 99.0933 83.1584 98.5936 83.5897 98.1898C83.6677 98.1167 83.8757 97.9212 84.1621 97.9595C84.3087 97.9788 84.4391 98.0549 84.5297 98.1738C84.7055 98.4039 84.6863 98.7126 84.6695 98.8347C84.5409 99.7832 84.0533 100.623 83.5456 101.39C83.3282 101.718 83.0841 102.055 82.708 102.25C82.5415 102.336 82.3453 102.383 82.1493 102.383Z" fill="#371A45"/>
<path d="M80.2788 106.821L80.0717 107.093C79.4586 106.685 78.4322 106.002 78.214 104.757C77.977 103.403 77.9807 102.257 78.2257 101.253C78.2704 101.07 78.454 100.957 78.6387 101.002C78.822 101.047 78.9344 101.232 78.8897 101.415C78.6676 102.325 78.6667 103.38 78.8872 104.639C79.0549 105.595 79.8946 106.154 80.4505 106.525L80.2788 106.821Z" fill="#371A45"/>
<path d="M81.585 105.179C81.185 105.179 80.8189 105.043 80.5627 104.796C80.2 104.446 80.1121 103.943 80.0481 103.575C80.0158 103.389 80.14 103.212 80.326 103.18C80.5152 103.147 80.689 103.272 80.7214 103.458C80.7835 103.814 80.8502 104.124 81.0372 104.304C81.1832 104.445 81.4257 104.516 81.6884 104.491C81.9757 104.464 82.2626 104.338 82.5058 104.218C83.1129 103.918 83.6794 103.539 84.189 103.093C84.331 102.968 84.5468 102.982 84.6713 103.124C84.7955 103.266 84.7812 103.482 84.6393 103.607C84.0849 104.092 83.4692 104.504 82.8089 104.83C82.5096 104.979 82.1496 105.135 81.7509 105.171C81.6953 105.176 81.6397 105.179 81.585 105.179Z" fill="#371A45"/>
</g>
<path d="M78.759 108.055C78.3394 108.055 77.936 107.967 77.5569 107.793C77.2069 107.631 76.9007 107.406 76.6439 107.123C75.1125 105.454 75.3495 101.713 77.2504 97.5954C78.1925 95.5545 79.5534 93.7411 81.0816 92.4895C82.6611 91.1959 84.166 90.7313 85.2104 91.2136C85.456 91.3291 85.6768 91.4853 85.8716 91.68C86.2296 92.0421 86.5066 92.532 86.6973 93.1396C87.3519 95.2396 86.9001 98.4915 85.5467 101.426C85.5464 101.426 85.5464 101.426 85.5464 101.426C84.9383 102.741 84.2439 103.913 83.4831 104.908C82.5157 106.183 80.9934 107.76 79.2444 108.017C79.0807 108.042 78.9186 108.055 78.759 108.055ZM84.3092 92.6145C83.8933 92.6145 83.1092 92.884 82.089 93.7196C80.7627 94.8059 79.5251 96.4616 78.6938 98.2618C76.9311 102.081 76.919 105.071 77.8181 106.051C77.9339 106.178 78.0693 106.278 78.2236 106.349C78.4597 106.458 78.7165 106.49 79.0072 106.444C79.9494 106.306 81.1177 105.395 82.2183 103.945C82.9102 103.04 83.5437 101.969 84.1027 100.759C85.4648 97.8067 85.6251 95.0432 85.1797 93.6143C85.0676 93.2575 84.917 92.9758 84.7443 92.8011C84.6822 92.739 84.6139 92.6901 84.5387 92.6547C84.4834 92.6293 84.406 92.6145 84.3092 92.6145Z" fill="#371A45"/>
<path d="M80.6188 134.003C80.3147 136.125 79.7713 137.776 79.0947 139.061C76.4325 144.125 71.7302 143.466 71.7302 143.466L68.6136 138.042C66.6315 138.039 64.6904 137.472 63.016 136.416L59.2022 134.003C58.5631 132.732 58.9698 131.652 59.3388 131.051C59.537 130.722 59.725 130.538 59.725 130.538C58.2248 127.999 60.4187 125.921 60.4187 125.921C59.8411 123.727 62.5341 122.247 62.5341 122.247C62.5341 122.247 62.2641 119.343 64.8032 118.997C67.3423 118.649 73.767 122.784 73.767 122.784L74.9596 120.204C78.4214 123.433 76.5795 128.347 76.5795 128.347L80.6188 134.003Z" fill="#FFB78A"/>
<g opacity="0.2">
<path d="M79.0947 139.057C76.4325 144.122 71.7302 143.462 71.7302 143.462L68.6136 138.039C66.6315 138.035 64.6904 137.468 63.016 136.412L59.2022 133.999C58.5631 132.728 58.9698 131.648 59.3388 131.047C61.7139 133.145 65.4013 135.353 70.3052 135.196C70.3052 135.196 73.3364 140.95 79.0947 139.057Z" fill="#371A45"/>
</g>
<path d="M72.1863 144.508C71.8196 144.508 71.6 144.48 71.5867 144.478C71.2737 144.434 70.9982 144.248 70.8405 143.974L68.0098 139.046C66.0437 138.94 64.1395 138.334 62.4687 137.277L58.6523 134.865C58.495 134.765 58.3677 134.625 58.2842 134.459C57.3943 132.689 58.0127 131.209 58.5231 130.42C57.696 128.428 58.5158 126.605 59.3236 125.6C59.1638 123.843 60.4153 122.448 61.5033 121.682C61.5814 120.276 62.2905 118.301 64.6653 117.977C66.948 117.666 71.2404 120.039 73.3227 121.296L74.0277 119.769C74.1656 119.471 74.4382 119.256 74.7612 119.193C75.0835 119.13 75.4174 119.225 75.6581 119.449C78.9011 122.477 78.1216 126.675 77.7084 128.162L81.4514 133.402C81.6048 133.617 81.6694 133.882 81.6321 134.143C80.2628 143.727 74.1391 144.508 72.1863 144.508ZM60.0125 133.299L63.5644 135.544C65.0778 136.501 66.8244 137.009 68.6151 137.013C68.9812 137.013 69.3194 137.21 69.502 137.527L72.3416 142.47C73.8223 142.461 78.3126 141.797 79.5408 134.255L75.743 128.938C75.5443 128.66 75.4974 128.302 75.6172 127.982C75.6722 127.833 76.7917 124.704 75.2067 122.107L74.6977 123.209C74.5735 123.478 74.3384 123.68 74.0536 123.763C73.7682 123.846 73.4614 123.802 73.2123 123.641C70.6757 122.01 66.4336 119.803 64.9422 120.008C63.4744 120.209 63.5292 121.832 63.5552 122.155C63.5873 122.557 63.3812 122.948 63.0278 123.142C63.0112 123.151 61.0443 124.271 61.409 125.657C61.5043 126.02 61.3945 126.405 61.1226 126.662C60.9652 126.816 59.5692 128.256 60.6076 130.014C60.8464 130.418 60.7803 130.932 60.4473 131.263C60.3611 131.353 59.6056 132.184 60.0125 133.299Z" fill="#371A45"/>
<path d="M60.0536 129.567L63.8229 131.923L59.397 131.509C58.8176 131.455 58.3919 130.941 58.4461 130.362C58.5002 129.782 59.0138 129.357 59.5932 129.411C59.7608 129.427 59.9196 129.484 60.0536 129.567Z" fill="#371A45"/>
<path d="M60.8261 124.979L65.3051 128.036L60.0113 126.86C59.4484 126.735 59.0934 126.178 59.2184 125.615C59.3434 125.052 59.901 124.697 60.4639 124.822C60.5964 124.851 60.7202 124.907 60.8261 124.979Z" fill="#371A45"/>
<path d="M63.0067 121.334L66.6515 124.38L62.0626 123.154C61.5023 123.005 61.1694 122.429 61.319 121.869C61.4686 121.309 62.044 120.976 62.6043 121.126C62.7554 121.166 62.8937 121.241 63.0067 121.334Z" fill="#371A45"/>
<path d="M70.615 123.648C70.8419 124.597 70.7382 125.611 70.4395 126.56C70.2872 127.036 70.0762 127.496 69.8135 127.927C69.6796 128.141 69.5348 128.349 69.3795 128.548L68.9157 129.1C68.6227 129.421 68.3839 129.79 68.1454 130.161C67.9203 130.541 67.7176 130.938 67.5296 131.35C67.1732 132.183 66.8852 133.063 66.652 133.998C66.4581 133.045 66.5309 132.049 66.7725 131.092C67.0164 130.134 67.4674 129.202 68.1388 128.431L68.5969 127.908C68.7419 127.744 68.8714 127.566 69.0049 127.391C69.2642 127.035 69.487 126.653 69.7017 126.259C70.1007 125.456 70.4158 124.591 70.615 123.648Z" fill="#371A45"/>
<path d="M81.9753 146.364C81.5824 146.873 81.1278 147.348 80.6186 147.782C77.5533 150.39 71.9658 148.613 70.616 146.361C69.6899 144.816 70.1683 142.485 70.3768 141.675C70.4246 141.491 70.4589 141.385 70.4589 141.385L71.1936 142.588L71.7301 143.463C71.8463 143.432 71.9625 143.398 72.0787 143.364C78.722 141.361 80.6187 134 80.6187 134C84.5896 137.113 84.8801 142.615 81.9753 146.364Z" fill="white"/>
<g opacity="0.2">
<path d="M81.9753 146.364C81.5824 146.874 81.1278 147.349 80.6186 147.783C77.5533 150.39 71.9658 148.613 70.616 146.361C69.6899 144.816 70.1683 142.486 70.3768 141.676C70.6194 141.976 70.8894 142.284 71.1936 142.588C71.4669 142.858 71.7608 143.121 72.0786 143.364C73.7668 144.652 76.0838 145.349 78.7938 143.343C78.7938 143.343 79.3884 146.176 81.9753 146.364Z" fill="#371A45"/>
</g>
<path d="M76.7422 150.103C76.231 150.103 75.7034 150.059 75.1637 149.97C72.7526 149.574 70.6222 148.364 69.7368 146.888C68.4008 144.662 69.3678 141.435 69.4825 141.074C69.6039 140.692 69.9377 140.415 70.3362 140.367C70.734 140.318 71.1246 140.507 71.3343 140.85L72.1892 142.249C77.8583 140.261 79.607 133.808 79.6247 133.74C79.7119 133.406 79.9619 133.137 80.2892 133.027C80.6156 132.916 80.9771 132.977 81.2492 133.19C83.5684 135.008 84.8773 137.624 84.9354 140.557C84.9959 143.621 83.6637 146.539 81.2805 148.564C80.0902 149.576 78.5148 150.103 76.7422 150.103ZM71.0973 144.27C71.1225 144.841 71.234 145.399 71.4952 145.833C71.9765 146.636 73.5056 147.62 75.4966 147.947C76.5428 148.119 78.513 148.225 79.953 147.001C81.865 145.377 82.9336 143.043 82.8855 140.597C82.8497 138.796 82.2132 137.147 81.066 135.829C80.0533 138.315 77.4689 142.993 71.9936 144.453C71.6755 144.538 71.3455 144.464 71.0973 144.27Z" fill="#371A45"/>
<path d="M70.3047 116.046C70.3047 116.046 66.1557 113.765 64.8559 114.571C63.5561 115.376 63.9222 117.793 65.0572 118.781L68.6225 119.69L70.3047 116.046Z" fill="#FFB78A"/>
<path d="M68.625 120.717C68.5412 120.717 68.4561 120.707 68.3716 120.685L64.8062 119.777C64.6507 119.737 64.5068 119.662 64.3858 119.556C63.4624 118.752 62.914 117.323 63.0211 116C63.1034 114.985 63.5639 114.168 64.3178 113.701C65.9507 112.689 69.3952 114.377 70.8004 115.15C71.2721 115.409 71.4631 115.989 71.2373 116.478L69.5554 120.121C69.385 120.491 69.0169 120.717 68.625 120.717ZM65.586 117.859L68.0515 118.488L68.9639 116.511C67.3891 115.754 65.8112 115.272 65.3849 115.451C65.1464 115.6 65.0814 115.963 65.0649 116.165C65.0177 116.748 65.2397 117.447 65.586 117.859Z" fill="#371A45"/>
<path d="M14.8169 90.1311C17.9401 89.3019 19.4834 84.9064 18.264 80.3135C17.0446 75.7206 13.5243 72.6694 10.4011 73.4986C7.27793 74.3278 5.73461 78.7233 6.954 83.3162C8.1734 87.9091 11.6937 90.9603 14.8169 90.1311Z" fill="#FFB78A"/>
<g opacity="0.2">
<path d="M15.4155 85.345C12.2922 86.1741 8.77199 83.1228 7.55251 78.5298C7.38091 77.8833 7.26986 77.2425 7.20435 76.6133C6.44732 78.4447 6.2988 80.8504 6.95383 83.3188C8.17331 87.9118 11.6935 90.9631 14.8168 90.134C17.5007 89.4215 19.0122 86.0744 18.6126 82.2328C17.9608 83.809 16.8603 84.9614 15.4155 85.345Z" fill="#371A45"/>
</g>
<path d="M78.2009 83.5912C79.8929 78.3647 78.523 73.2403 75.1412 72.1455C71.7593 71.0507 67.6462 74.4 65.9542 79.6265C64.2622 84.853 65.6321 89.9774 69.014 91.0722C72.3958 92.167 76.5089 88.8176 78.2009 83.5912Z" fill="#FFB78A"/>
<g opacity="0.2">
<path d="M78.1992 78.2049C76.5073 83.4313 72.3943 86.7806 69.0124 85.6858C67.2577 85.1178 66.0507 83.4597 65.5263 81.2705C64.5793 85.8881 65.987 90.0941 69.0124 91.0736C72.3943 92.1683 76.5073 88.8191 78.1992 83.5927C79.0133 81.0783 79.1124 78.5923 78.6256 76.5625C78.5143 77.1062 78.3775 77.6544 78.1992 78.2049Z" fill="#371A45"/>
</g>
<path d="M13.7566 91.3871C12.2894 91.3871 10.7961 90.7766 9.44146 89.6026C7.78931 88.1706 6.52365 86.041 5.87728 83.6062C5.23084 81.1713 5.27389 78.6943 5.99824 76.6315C6.77525 74.4188 8.23718 72.9257 10.1149 72.4273C13.8878 71.4254 17.9411 74.7659 19.3392 80.0326C20.7371 85.2993 18.8757 90.2095 15.1014 91.2115C14.6589 91.3291 14.2089 91.3871 13.7566 91.3871ZM11.4407 74.4814C11.1857 74.4814 10.9335 74.5131 10.6861 74.5788C9.54278 74.8824 8.62388 75.8731 8.09853 77.3691C7.52059 79.015 7.49572 81.0272 8.02882 83.0351C8.56186 85.043 9.58126 86.778 10.8996 87.9205C12.0977 88.9592 13.3872 89.3636 14.5303 89.0601C17.0126 88.4011 18.2296 84.5285 17.1877 80.6038C16.2495 77.0702 13.7427 74.4814 11.4407 74.4814Z" fill="#371A45"/>
<path d="M70.3645 92.4014C69.7937 92.4014 69.2266 92.3149 68.6707 92.1351C64.6435 90.8312 62.985 85.1879 64.8949 79.2876C66.8049 73.3878 71.4538 69.7868 75.4836 71.0906C77.4907 71.7404 78.9698 73.4966 79.6487 76.0355C80.2813 78.402 80.1428 81.2085 79.2592 83.9379C77.6127 89.0239 73.9293 92.4014 70.3645 92.4014ZM73.8166 73.0563C71.2558 73.0563 68.317 75.9446 67.0127 79.9733C65.5381 84.5289 66.6112 89.1285 69.3565 90.0171C72.0986 90.9047 75.6665 87.808 77.1414 83.2522C77.8945 80.9262 78.0212 78.5674 77.4982 76.6105C77.0212 74.8259 76.0622 73.6177 74.798 73.2085C74.4805 73.1058 74.1516 73.0563 73.8166 73.0563Z" fill="#371A45"/>
<path d="M71.6928 71.7832C71.6928 71.7832 71.6888 78.2899 68.9043 85.6034L68.9053 85.6072C65.5276 94.4867 58.057 104.549 41.5281 105.62C19.8607 107.021 14.4296 89.527 13.0892 79.5673C12.5662 75.6663 12.6693 72.9229 12.6693 72.9229C12.6693 72.9229 10.5947 40.7837 43.0341 39.8402C75.4736 38.8968 71.6928 71.7832 71.6928 71.7832Z" fill="#FFB78A"/>
<g opacity="0.2">
<path d="M71.3159 73.6073C71.3159 73.6073 71.3119 80.1141 68.5274 87.4276C70.3036 71.1317 57.3239 56.6262 57.3239 56.6262C48.7368 66.8159 26.5236 63.5313 20.5654 66.3843C16.6724 68.245 14.0592 76.1427 12.7123 81.3916C12.1892 77.4905 12.2923 74.7471 12.2923 74.7471C12.2923 74.7471 10.2178 42.608 42.6572 41.6644C75.0967 40.721 71.3159 73.6073 71.3159 73.6073Z" fill="#371A45"/>
</g>
<g opacity="0.2">
<path d="M71.6805 67.0334C71.6805 67.0334 71.6698 98.919 41.5158 100.87C18.8323 102.338 13.9461 83.0963 12.917 73.4713C12.8843 77.2404 13.4961 107.616 41.7829 105.786C71.9369 103.835 71.9476 71.949 71.9476 71.949C71.9476 71.949 72.3251 68.6531 71.8144 64.1797C71.8044 65.9469 71.6805 67.0334 71.6805 67.0334Z" fill="#371A45"/>
</g>
<path d="M39.1235 106.812C31.7374 106.812 25.6744 104.55 21.0722 100.072C11.2137 90.4785 11.5158 74.2092 11.5555 72.9372C11.4903 71.7883 10.9121 57.9811 19.8531 48.162C25.2909 42.1903 33.0794 39.0161 43.0023 38.7275C52.7932 38.4422 60.3762 41.1462 65.5329 46.7631C74.2575 56.2666 72.9364 70.6261 72.806 71.8471C72.7982 72.6829 72.624 80.3883 68.93 88.434C65.3623 96.2049 57.7246 105.687 41.6003 106.73C40.7594 106.785 39.9328 106.812 39.1235 106.812ZM44.3832 40.9331C43.9494 40.9331 43.5108 40.9397 43.0669 40.9525C33.7786 41.2227 26.5262 44.148 21.5112 49.6473C13.01 58.9694 13.7718 72.7139 13.7803 72.8518C13.7826 72.8884 13.7832 72.9268 13.7818 72.9636C13.7759 73.1269 13.2956 89.4077 22.6324 98.484C27.2676 102.99 33.6016 105.018 41.4565 104.509C53.5223 103.728 62.0852 98.0073 66.9071 87.5051C70.5355 79.6022 70.5803 71.8597 70.5803 71.7826C70.5803 71.7402 70.5827 71.6978 70.5874 71.6557C70.6039 71.5132 72.1205 57.2183 63.8837 48.2582C59.4124 43.3945 52.8563 40.9331 44.3832 40.9331Z" fill="#371A45"/>
<path d="M77.708 57.4854C77.3243 62.3495 75.4854 68.5725 71.2605 76.5106C71.2605 76.5106 71.1779 75.7737 71.0124 74.6029C70.53 71.2199 69.3665 64.1917 67.559 60.7729C65.1269 56.1721 60.9331 54.0567 58.6011 49.8328C58.6011 49.8328 53.4162 57.6665 35.4499 58.4001C17.4836 59.1338 13.6932 61.4718 12.9654 78.5547C12.9654 78.5547 10.3918 73.6645 8.69154 66.7425C8.02997 64.0527 7.49636 61.0545 7.2976 57.919C6.78059 49.799 8.50386 40.7534 15.9794 33.704C31.4738 19.0977 61.6978 21.971 67.4559 40.6213C67.4559 40.6213 78.8442 43.1877 77.708 57.4854Z" fill="#8A423A"/>
<g opacity="0.6">
<path d="M76.4173 63.1494C76.0647 42.3308 63.9808 43.7225 63.9808 43.7225C64.575 33.0573 47.7723 22.729 26.6878 30.4005C13.6232 35.1562 8.90486 47.9551 7.19018 57.2002C6.67317 49.0803 8.39643 40.0346 15.872 32.9852C31.3663 18.379 61.5904 21.2522 67.3485 39.9025C67.3485 39.9025 81.4417 44.0168 76.4173 63.1494Z" fill="white"/>
</g>
<g opacity="0.2">
<path d="M71.0123 74.6024C70.5299 71.2193 69.3664 64.1911 67.5588 60.7724C65.1267 56.1715 60.933 54.0562 58.6009 49.8323C58.6009 49.8323 53.4161 57.666 35.4498 58.3996C17.4834 59.1332 13.693 61.4713 12.9652 78.5542C12.9652 78.5542 10.3917 73.664 8.69141 66.742C9.89225 62.6456 11.9812 58.0635 15.5087 56.2553C22.5112 52.6691 34.9908 49.5256 41.1214 41.332C41.1058 41.5622 40.5118 48.948 35.0969 51.7495C35.0969 51.7495 56.5053 49.4484 60.0164 41.4819C60.0164 41.4819 61.8612 44.6002 66.5337 49.7807C70.3879 54.0525 74.6041 63.7169 71.0123 74.6024Z" fill="#371A45"/>
</g>
<path d="M12.9655 79.6687C12.559 79.6687 12.1761 79.4451 11.9808 79.0735C11.8264 78.7802 8.18683 71.7851 6.70531 62.5939C4.72135 50.2839 7.66429 40.0147 15.2158 32.896C23.9713 24.6422 38.1367 21.2801 50.4641 24.529C59.3547 26.8724 65.8307 32.3888 68.331 39.7155C70.0493 40.2654 74.8063 42.2345 77.3279 47.7314C80.5568 54.7693 78.8465 64.6288 72.2445 77.0362C72.0156 77.4664 71.5312 77.6985 71.0545 77.6068C70.5753 77.5158 70.2113 77.1239 70.1561 76.6396C70.1437 76.5302 68.8803 65.6568 66.5745 61.2949C65.3969 59.0668 63.791 57.4739 62.0911 55.7875C60.8312 54.5377 59.5376 53.2545 58.4572 51.7042C56.121 54.0614 49.6253 58.9371 35.4951 59.5141C27.0286 59.8597 21.5278 60.5726 18.4661 63.1932C15.6413 65.611 14.4519 69.7875 14.078 78.6027C14.0566 79.1054 13.7007 79.5313 13.2098 79.6415C13.1282 79.6598 13.0464 79.6687 12.9655 79.6687ZM40.7957 25.5246C31.8231 25.5246 22.8659 28.7436 16.7428 34.5158C9.66536 41.1874 7.02459 50.4955 8.89362 62.1813C9.64825 66.8991 11.0265 71.0757 12.1539 73.957C12.7038 68.2761 13.9473 64.1306 17.0186 61.5022C20.5885 58.4465 26.2344 57.6644 35.4044 57.29C52.4704 56.5931 57.6263 49.2885 57.6764 49.2149C57.8939 48.8951 58.2613 48.7086 58.6503 48.7258C59.0368 48.7437 59.3882 48.9581 59.5751 49.2968C60.6245 51.1972 62.0984 52.6593 63.6587 54.2072C65.4025 55.9372 67.2058 57.7259 68.5427 60.2547C70.1784 63.3492 71.288 69.0973 71.8746 72.8346C76.7202 62.6989 77.9164 54.398 75.3214 48.6963C72.7522 43.051 67.2632 41.721 67.208 41.7083C66.8219 41.6189 66.5092 41.3302 66.3923 40.9516C64.2417 33.9863 58.3835 28.9184 49.8966 26.6815C46.9368 25.9012 43.865 25.5246 40.7957 25.5246Z" fill="#371A45"/>
<path d="M29.1508 80.2773C29.1508 80.2773 42.1858 85.2922 54.05 81.3355C54.05 81.3355 53.2824 93.6467 39.7402 92.8023C28.4032 92.0954 29.1508 80.2773 29.1508 80.2773Z" fill="white"/>
<path d="M41.0354 93.7983C40.5974 93.7983 40.1464 93.7844 39.6801 93.7554C33.328 93.3592 30.5341 89.6637 29.309 86.6332C28.0123 83.426 28.19 80.3475 28.198 80.218C28.2173 79.9151 28.3795 79.6394 28.635 79.4755C28.8904 79.3113 29.2087 79.2787 29.4922 79.3878C29.6199 79.4365 42.3596 84.2292 53.7475 80.4315C54.0485 80.3312 54.3796 80.3871 54.631 80.5803C54.8824 80.7736 55.0212 81.0793 55.0015 81.3958C54.9931 81.5315 54.7715 84.7544 52.7784 87.8973C51.0371 90.6435 47.6051 93.7983 41.0354 93.7983ZM30.1169 81.6209C30.2952 84.5266 31.5923 91.3393 39.7988 91.8511C49.6538 92.4611 52.2249 85.7174 52.8803 82.6877C43.347 85.302 33.5917 82.7346 30.1169 81.6209Z" fill="#371A45"/>
<path d="M30.1357 84.3643C30.724 84.726 31.3887 85.0783 32.0426 85.397C32.7018 85.7196 33.3775 86.0133 34.0645 86.2832C34.7509 86.5559 35.4516 86.796 36.1642 87.0048C36.8754 87.2232 37.6029 87.3807 38.3386 87.5261C37.5913 87.5127 36.836 87.4856 36.0866 87.3946C35.3357 87.3133 34.5856 87.1978 33.8415 87.0463C33.0965 86.8974 32.3545 86.7215 31.6197 86.512C30.8789 86.3005 30.1658 86.0754 29.4139 85.781C29.0032 85.6202 28.8006 85.1567 28.9615 84.746C29.1224 84.3352 29.5858 84.1326 29.9965 84.2935C30.0401 84.3105 30.0813 84.331 30.12 84.3544L30.1357 84.3643Z" fill="#371A45"/>
<path d="M52.5423 87.4624C51.8701 87.5267 51.2171 87.5734 50.5556 87.6141C49.896 87.6539 49.2367 87.6839 48.5776 87.7046C47.26 87.745 45.9411 87.7438 44.6328 87.6691C45.9294 87.479 47.2069 87.2173 48.4736 86.9165C49.1068 86.7655 49.7372 86.6059 50.3644 86.437C50.9895 86.2682 51.6207 86.0905 52.2277 85.9038L52.2311 85.9027C52.653 85.773 53.1003 86.0099 53.23 86.4318C53.3598 86.8537 53.1229 87.301 52.7009 87.4307C52.6497 87.4465 52.5937 87.4571 52.5423 87.4624Z" fill="#371A45"/>
<path d="M51.2728 76.196C51.1469 75.1937 51.4182 74.201 51.9158 73.3134C52.4194 72.4296 53.222 71.65 54.2139 71.1946C54.705 70.96 55.2417 70.8264 55.7727 70.7703C56.3054 70.7134 56.837 70.7432 57.3381 70.8562C58.342 71.0777 59.2374 71.5528 59.9208 72.286C58.9226 72.3598 58.0457 72.3776 57.2434 72.4892C57.0422 72.5057 56.8502 72.5584 56.659 72.5804C56.4726 72.6339 56.2843 72.6537 56.1077 72.715C55.7483 72.8083 55.4095 72.9333 55.0826 73.0847C54.4291 73.3849 53.8087 73.7984 53.1908 74.3293C52.5693 74.8603 51.9609 75.4802 51.2728 76.196Z" fill="#371A45"/>
<path d="M50.1309 62.7766C50.7105 61.9423 51.5502 61.3323 52.4841 60.9094C53.422 60.4939 54.4976 60.2923 55.5729 60.4067C56.6468 60.5213 57.6866 60.9695 58.489 61.643C59.2878 62.3234 59.8818 63.1812 60.18 64.1447C59.3301 63.6014 58.5598 63.1058 57.7755 62.74C56.9912 62.3755 56.2051 62.1546 55.3931 62.0608C54.58 61.9742 53.7379 62.0181 52.8654 62.1565C51.99 62.2946 51.0976 62.514 50.1309 62.7766Z" fill="#371A45"/>
<path d="M35.2822 63.0846C34.3623 62.4768 33.4781 61.9674 32.5792 61.5644C31.6822 61.1622 30.7739 60.8956 29.8526 60.7796C29.3922 60.7149 28.9257 60.6992 28.4549 60.7194C28.2182 60.7158 27.9835 60.7556 27.743 60.7664L27.3847 60.817C27.2633 60.828 27.1429 60.8475 27.023 60.8733C26.0531 61.0402 25.0687 61.3352 24.002 61.6398C24.6803 60.7607 25.5925 60.0804 26.6392 59.6223C27.162 59.3924 27.7234 59.2306 28.3025 59.1482C28.5911 59.0968 28.8855 59.0913 29.1794 59.0742C29.4739 59.0819 29.769 59.0899 30.0618 59.1291C31.2348 59.2764 32.3506 59.7539 33.2546 60.4489C34.1523 61.1485 34.8944 62.0362 35.2822 63.0846Z" fill="#371A45"/>
<path d="M33.1415 75.9147C32.416 75.1681 31.7678 74.523 31.0952 73.9711C30.4275 73.4189 29.7489 72.9864 29.0315 72.6651C28.6748 72.498 28.3016 72.3673 27.9115 72.2622C27.7196 72.1949 27.5157 72.1704 27.3147 72.1115C27.1085 72.083 26.9024 72.0253 26.6872 72.0028C25.8289 71.8655 24.9036 71.8272 23.8594 71.7214C24.6237 70.9995 25.5897 70.5602 26.6439 70.3675C27.1706 70.2694 27.7225 70.2559 28.2728 70.3223C28.5496 70.3472 28.8202 70.418 29.0937 70.4787C29.3604 70.5646 29.6278 70.6513 29.884 70.7681C30.9132 71.2282 31.7739 72.0083 32.338 72.9163C32.8929 73.8281 33.2298 74.8586 33.1415 75.9147Z" fill="#371A45"/>
</svg>
